<?xml version="1.0" encoding="UTF-8"?> <!-- Generator: Adobe Illustrator 21.0.2, SVG Export Plug-In . SVG Version: 6.00 Build 0) --> <svg xmlns="http://www.w3.org/2000/svg" xmlns:xlink="http://www.w3.org/1999/xlink" id="Layer_1" x="0px" y="0px" viewBox="0 0 300 95.66" style="enable-background:new 0 0 300 95.66;" xml:space="preserve"> <style type="text/css"> .st0{clip-path:url(#SVGID_2_);} .st1{fill:#26CAD3;} .st2{fill:#62269E;} .st3{opacity:0.62;} .st4{fill:#FFFFFF;} .st5{fill:#333E48;} .st6{fill:#333E48;stroke:#FB3449;stroke-width:1.4591;stroke-miterlimit:10;} .st7{fill:#FB3449;} .st8{fill:none;} .st9{fill:#888494;} .st10{fill:#1C3957;} .st11{fill:#61B4E4;} .st12{fill:none;stroke:#333E48;stroke-width:4.3772;stroke-linecap:round;stroke-linejoin:round;stroke-miterlimit:10;} .st13{fill:#524D62;} .st14{fill:none;stroke:#FFFFFF;stroke-width:1.4591;stroke-miterlimit:10;} .st15{opacity:0.62;fill:#524D62;enable-background:new ;} .st16{fill:#3B3835;} .st17{opacity:0.8;} .st18{fill:#302D29;} </style> <g> <defs> <rect id="SVGID_1_" width="300" height="95.66"></rect> </defs> <clipPath id="SVGID_2_"> <use xlink:href="#SVGID_1_" style="overflow:visible;"></use> </clipPath> <g class="st0"> <g> <g> <g> <g> <g> <g> <path class="st1" d="M474.18,90.63h1.78v-0.47V79.84h-1.78v0.61h-10.69v-0.61h-1.78v10.31v0.47h1.78v-0.47v-0.19h10.69v0.19 V90.63z M465.42,88.18h-0.81v-5.91h0.81V88.18z M467.96,88.18h-0.81v-5.91h0.81V88.18z M470.52,88.18h-0.81v-5.91h0.81 V88.18z M473.06,88.18h-0.81v-5.91h0.81V88.18z"></path> <path class="st1" d="M474.18,79.13h1.78v-0.47V68.35h-1.78v0.61h-10.69v-0.61h-1.78v10.31v0.47h1.78v-0.47v-0.19h10.69v0.19 V79.13z M465.42,76.7h-0.81v-5.91h0.81V76.7z M467.96,76.7h-0.81v-5.91h0.81V76.7z M470.52,76.7h-0.81v-5.91h0.81V76.7z M473.06,76.7h-0.81v-5.91h0.81V76.7z"></path> <path class="st1" d="M491.42,90.63h1.78v-0.47V79.84h-1.78v0.61h-10.69v-0.61h-1.78v10.31v0.47h1.78v-0.47v-0.19h10.69v0.19 V90.63z M482.66,88.18h-0.81v-5.91h0.81V88.18z M485.2,88.18h-0.81v-5.91h0.81V88.18z M487.75,88.18h-0.81v-5.91h0.81V88.18 z M490.3,88.18h-0.81v-5.91h0.81V88.18z"></path> <path class="st1" d="M491.42,79.13h1.78v-0.47V68.35h-1.78v0.61h-10.69v-0.61h-1.78v10.31v0.47h1.78v-0.47v-0.19h10.69v0.19 V79.13z M482.66,76.7h-0.81v-5.91h0.81V76.7z M485.2,76.7h-0.81v-5.91h0.81V76.7z M487.75,76.7h-0.81v-5.91h0.81V76.7z M490.3,76.7h-0.81v-5.91h0.81V76.7z"></path> <path class="st1" d="M507.51,90.63h1.78v-0.47V79.84h-1.78v0.61h-10.69v-0.61h-1.78v10.31v0.47h1.78v-0.47v-0.19h10.69v0.19 V90.63z M498.74,88.18h-0.81v-5.91h0.81V88.18z M501.29,88.18h-0.81v-5.91h0.81V88.18z M503.84,88.18h-0.81v-5.91h0.81 V88.18z M506.38,88.18h-0.81v-5.91h0.81V88.18z"></path> <g> <g> <path class="st2" d="M519.19,90.85c-1.56,0-2.81-1.27-2.81-2.81c0-1.55,1.27-2.81,2.81-2.81c1.56,0,2.81,1.27,2.81,2.81 C522.02,89.58,520.75,90.85,519.19,90.85L519.19,90.85z"></path> <path class="st2" d="M519.19,90.85c-1.56,0-2.81-1.27-2.81-2.81c0-1.55,1.27-2.81,2.81-2.81c1.56,0,2.81,1.27,2.81,2.81 C522.02,89.58,520.75,90.85,519.19,90.85L519.19,90.85z"></path> <path class="st2" d="M519.19,89.5c-0.81,0-1.47-0.66-1.47-1.47s0.66-1.47,1.47-1.47s1.47,0.66,1.47,1.47 S520,89.5,519.19,89.5L519.19,89.5z"></path> <path class="st2" d="M519.19,88.82c-0.44,0-0.79-0.35-0.79-0.79c0-0.44,0.35-0.79,0.79-0.79s0.79,0.35,0.79,0.79 C519.99,88.46,519.63,88.82,519.19,88.82L519.19,88.82z"></path> </g> <g> <path class="st2" d="M532.65,90.85c-1.56,0-2.81-1.27-2.81-2.81c0-1.55,1.27-2.81,2.81-2.81c1.56,0,2.81,1.27,2.81,2.81 S534.21,90.85,532.65,90.85L532.65,90.85z"></path> <g> <path class="st2" d="M535.87,81.43h-8.62v-3.9c0-0.56-0.45-1.01-1.01-1.01h-3.04h-0.02c-0.01,0-0.02,0-0.02,0 c-2.26,0-4.09,2.72-4.09,6.07v1.96h0.12c1.76,0,3.22,1.31,3.46,3.01h6.55c0.24-1.7,1.7-3.01,3.46-3.01 c1.75,0,3.2,1.29,3.45,2.98c0.45-0.11,0.78-0.5,0.78-0.98v-4.11C536.88,81.88,536.43,81.43,535.87,81.43z"></path> </g> <path class="st2" d="M532.65,90.85c-1.56,0-2.81-1.27-2.81-2.81c0-1.55,1.27-2.81,2.81-2.81c1.56,0,2.81,1.27,2.81,2.81 S534.21,90.85,532.65,90.85L532.65,90.85z"></path> <path class="st2" d="M532.65,89.5c-0.81,0-1.47-0.66-1.47-1.47s0.66-1.47,1.47-1.47s1.47,0.66,1.47,1.47 S533.46,89.5,532.65,89.5L532.65,89.5z"></path> <path class="st2" d="M532.65,88.82c-0.44,0-0.79-0.35-0.79-0.79c0-0.44,0.35-0.79,0.79-0.79s0.79,0.35,0.79,0.79 C533.45,88.46,533.09,88.82,532.65,88.82L532.65,88.82z"></path> </g> <g> <rect x="517.44" y="49.78" class="st2" width="1.64" height="34.77"></rect> </g> <polygon class="st2" points="515.12,46.58 516.14,47.6 516.14,66.5 515.12,66.5 "></polygon> <polygon class="st2" points="490.21,63.28 515.12,63.28 515.12,66.5 490.21,63.95 "></polygon> <rect x="516.14" y="50.29" class="st2" width="1.3" height="1.2"></rect> <rect x="516.14" y="63.28" class="st2" width="1.3" height="1.2"></rect> </g> <g> <rect x="582.4" y="72.08" class="st2" width="8.73" height="17.81"></rect> <rect x="585.55" y="68.93" class="st2" width="4.44" height="2.17"></rect> <g class="st3"> <rect x="579.49" y="73.24" class="st4" width="13.59" height="5.3"></rect> <g> <polygon class="st1" points="568.42,73.96 566.32,73.96 563.97,77.98 566.08,77.98 "></polygon> <polygon class="st1" points="572.3,73.96 570.2,73.96 567.85,77.98 569.96,77.98 "></polygon> <polygon class="st1" points="560.67,73.96 558.56,73.96 556.22,77.98 558.33,77.98 "></polygon> <polygon class="st1" points="576.18,73.96 574.07,73.96 571.74,77.98 573.83,77.98 "></polygon> <polygon class="st1" points="552.34,77.98 554.45,77.98 556.79,73.96 554.69,73.96 "></polygon> <polygon class="st1" points="564.55,73.96 562.44,73.96 560.1,77.98 562.2,77.98 "></polygon> <polygon class="st1" points="591.69,73.96 589.58,73.96 587.25,77.98 589.34,77.98 "></polygon> <polygon class="st1" points="552.92,73.96 548.9,73.96 548.9,77.98 550.57,77.98 "></polygon> <polygon class="st1" points="593.46,73.96 591.12,77.98 598.1,77.98 598.1,73.96 "></polygon> <polygon class="st1" points="583.93,73.96 581.83,73.96 579.49,77.98 581.59,77.98 "></polygon> <polygon class="st1" points="580.06,73.96 577.95,73.96 575.62,77.98 577.71,77.98 "></polygon> <polygon class="st1" points="587.81,73.96 585.7,73.96 583.37,77.98 585.47,77.98 "></polygon> </g> <circle class="st2" cx="560.1" cy="75.97" r="4.03"></circle> </g> </g> <g> <path class="st4" d="M522.08,82.47h-2.17v-0.25c0-2.58,1.35-4.85,2.88-4.86h1.3C523.98,80.31,522.99,82.47,522.08,82.47 L522.08,82.47z"></path> </g> <path class="st1" d="M510.24,61.93h1.78v-0.47v-10.3h-1.78v0.61h-10.69v-0.61h-1.78v10.31v0.47h1.78v-0.47v-0.19h10.69v0.19 V61.93z M501.48,59.49h-0.81v-5.91h0.81V59.49z M504.02,59.49h-0.81v-5.91h0.81V59.49z M506.57,59.49h-0.81v-5.91h0.81 V59.49z M509.12,59.49h-0.81v-5.91h0.81V59.49z"></path> <g> <polygon class="st5" points="797.52,56.66 735.58,56.66 738.5,47.91 766.69,39.84 794.61,47.92 "></polygon> <g> <rect x="754.44" y="87.01" class="st5" width="24.13" height="2.33"></rect> <rect x="774.68" y="89.34" class="st5" width="3.9" height="1.55"></rect> <rect x="754.44" y="89.34" class="st5" width="3.9" height="1.55"></rect> <rect x="764.55" y="89.34" class="st5" width="3.9" height="1.55"></rect> </g> <rect x="754.44" y="81.3" class="st6" width="8.82" height="5.71"></rect> <rect x="763.26" y="81.3" class="st6" width="9.08" height="5.71"></rect> <rect x="772.34" y="81.3" class="st6" width="6.23" height="5.71"></rect> <rect x="769.75" y="75.33" class="st6" width="8.82" height="5.96"></rect> <rect x="760.92" y="75.33" class="st6" width="8.82" height="5.96"></rect> <rect x="754.44" y="75.33" class="st6" width="6.49" height="5.96"></rect> <rect x="754.44" y="69.62" class="st6" width="8.82" height="5.71"></rect> <rect x="763.26" y="69.62" class="st6" width="9.08" height="5.71"></rect> <rect x="772.34" y="69.62" class="st6" width="6.23" height="5.71"></rect> <rect x="755.48" y="70.66" class="st6" width="3.37" height="2.33"></rect> <rect x="765.33" y="76.37" class="st6" width="3.37" height="2.33"></rect> <rect x="755.48" y="82.34" class="st6" width="3.37" height="2.33"></rect> <rect x="774.15" y="82.34" class="st6" width="3.37" height="2.33"></rect> <path class="st7" d="M737.56,57.43v33.21h11.94V66.25h34.02l-0.09,24.39h12.25V57.43H737.56z M747.43,78.97h-7.78v-5.71 h7.78V78.97z"></path> <line class="st8" x1="783.37" y1="88.3" x2="778.7" y2="88.3"></line> <line class="st8" x1="754.31" y1="88.3" x2="749.9" y2="88.3"></line> <rect x="749.5" y="66.25" class="st9" width="33.99" height="1.55"></rect> </g> <path d="M170.19,91.37c-0.01,0.03-0.02,0.06-0.03,0.09c-0.26,1.04-1.19,1.78-2.26,1.78h-8.01h-8.01 c-1.08,0-2.01-0.73-2.26-1.78c-0.01-0.03-0.02-0.06-0.02-0.09h10.3H170.19z"></path> <g> <path class="st10" d="M189.06,49.02v-1.95h9.37c-0.94-0.87-2.37-1.41-4.07-1.41h-8.45v-0.8v-1.93h-3.9v1.93v0.8h-0.3 c-1.25,0-2.47,0.54-3.31,1.41h9.2v1.95h-10.3c-0.03,0.12-0.05,0.44-0.06,0.73c-1.9,0.05-3.39,0.55-3.39,1.17v3.57h28.97 v-3.57c0-0.59-1.37-1.08-3.17-1.16c-0.01-0.31-0.03-0.62-0.06-0.74C199.6,49.02,189.06,49.02,189.06,49.02z M196.92,51.42 c0-0.38,0.65-0.69,1.45-0.69s1.45,0.31,1.45,0.69v1.14c0,0.38-0.65,0.69-1.45,0.69s-1.45-0.31-1.45-0.69V51.42z M191.9,51.42c0-0.38,0.65-0.69,1.45-0.69c0.8,0,1.45,0.31,1.45,0.69v1.14c0,0.38-0.65,0.69-1.45,0.69 c-0.8,0-1.45-0.31-1.45-0.69V51.42z M186.88,51.42c0-0.38,0.65-0.69,1.45-0.69s1.45,0.31,1.45,0.69v1.14 c0,0.38-0.65,0.69-1.45,0.69s-1.45-0.31-1.45-0.69V51.42z M181.86,51.42c0-0.38,0.65-0.69,1.45-0.69s1.45,0.31,1.45,0.69 v1.14c0,0.38-0.65,0.69-1.45,0.69s-1.45-0.31-1.45-0.69V51.42z M178.29,50.73c0.8,0,1.45,0.31,1.45,0.69v1.14 c0,0.38-0.65,0.69-1.45,0.69s-1.45-0.31-1.45-0.69v-1.14C176.84,51.04,177.49,50.73,178.29,50.73z"></path> <path class="st11" d="M209.8,74.19l-9.52-2.18v-4.43c0-0.81,0.65-1.46,1.46-1.46h6.59c0.33,0,0.61,0.13,0.85,0.31 c0.37,0.27,0.61,0.67,0.61,1.16L209.8,74.19C209.79,74.19,209.8,74.19,209.8,74.19z"></path> <path class="st11" d="M190.85,66.11h6.59c0.81,0,1.46,0.65,1.46,1.46v4.12l-9.52-2.19v-1.94 C189.39,66.77,190.05,66.11,190.85,66.11z"></path> <path class="st11" d="M179.97,66.11h6.59c0.81,0,1.46,0.65,1.46,1.46v1.94l-9.52,2.16v-4.09 C178.5,66.77,179.16,66.11,179.97,66.11z"></path> <path class="st11" d="M168.23,66.42c0.25-0.18,0.52-0.31,0.85-0.31h6.59c0.81,0,1.46,0.65,1.46,1.46v4.4l-9.52,2.16v-6.57 C167.62,67.1,167.87,66.68,168.23,66.42z"></path> <path class="st11" d="M209.8,56.42v6.96c0,0.48-0.25,0.89-0.61,1.16c-0.25,0.18-0.52,0.31-0.85,0.31h-6.59 c-0.81,0-1.46-0.65-1.46-1.46v-6.96c0-0.12,0.04-0.23,0.07-0.34c0.16-0.64,0.71-1.13,1.39-1.13h6.59 C209.14,54.95,209.8,55.61,209.8,56.42z"></path> <path class="st11" d="M189.39,56.42c0-0.12,0.04-0.23,0.07-0.34c0.16-0.64,0.71-1.13,1.39-1.13h6.59 c0.69,0,1.25,0.48,1.39,1.13c0.03,0.11,0.07,0.22,0.07,0.34v6.96c0,0.81-0.65,1.46-1.46,1.46h-6.59 c-0.81,0-1.46-0.65-1.46-1.46L189.39,56.42L189.39,56.42z"></path> <path class="st11" d="M178.5,56.42c0-0.12,0.04-0.23,0.07-0.34c0.16-0.64,0.71-1.13,1.39-1.13h6.59 c0.69,0,1.25,0.48,1.39,1.13c0.03,0.11,0.07,0.22,0.07,0.34v6.96c0,0.81-0.65,1.46-1.46,1.46h-6.59 c-0.81,0-1.46-0.65-1.46-1.46L178.5,56.42L178.5,56.42z"></path> <path class="st11" d="M167.62,56.42c0-0.81,0.65-1.46,1.46-1.46h6.59c0.69,0,1.25,0.48,1.39,1.13 c0.03,0.11,0.07,0.22,0.07,0.34v6.96c0,0.81-0.65,1.46-1.46,1.46h-6.59c-0.33,0-0.61-0.13-0.85-0.31 c-0.37-0.27-0.61-0.67-0.61-1.16L167.62,56.42L167.62,56.42z"></path> <rect x="182" y="39.07" width="3.9" height="1.93"></rect> <path class="st10" d="M188.58,70.7l-21.76,5c0,0,3.73,6.82,6.1,12.09c0.2,0.44,0.38,0.89,0.54,1.36 c0.16,0.44,0.31,0.89,0.45,1.36h14.66h14.66c0.15-0.47,0.3-0.93,0.45-1.37c0.17-0.47,0.35-0.93,0.54-1.36 c2.44-5.42,6.1-12.09,6.1-12.09l-21.21-4.88L188.58,70.7z M192.28,76.07c-0.36-0.08-0.74-0.14-1.19-0.17 c-0.29-0.02-0.54,0.2-0.56,0.49c-0.02,0.3,0.2,0.54,0.49,0.56c0.46,0.03,0.84,0.1,1.19,0.19 c-0.21,0.56-0.64,0.96-1.15,0.96c-0.71,0-1.29-0.75-1.29-1.67s0.57-1.67,1.29-1.67C191.65,74.75,192.15,75.33,192.28,76.07 z M189.36,85.3l1.76-2.1c0.03-0.04,0.1-0.02,0.11,0.03c0.05,0.42,0.14,0.9,0.31,1.43c0.1,0.33,0.28,0.82,0.42,1.14 c0.02,0.05-0.03,0.1-0.08,0.09c-0.07-0.02-0.17-0.05-0.27-0.08l0,0c-0.15-0.04-0.32-0.08-0.5-0.12 c0.01,0.09,0.04,0.19,0.09,0.29c0.11,0.23,0.34,0.45,0.76,0.63c0.31,0.14,1.61,0.32,1.74-0.47 c0.21-1.32,0.21-2.96,0.11-4.2c-0.07-0.9-0.86-1.65-1.76-1.68h-0.12l0.02-0.74l1.14,0.03c0.37,0.01,0.66-0.28,0.67-0.64 l0.01-0.19c-0.25-0.22-0.42-0.54-0.41-0.9c0-0.08,0.03-0.14,0.05-0.22c0.22,0.13,0.38,0.25,0.48,0.34 c0.05,0.31,0.3,0.54,0.61,0.55h0.01c0.36,0,0.65-0.28,0.66-0.63c0.01-0.31-0.2-0.55-0.47-0.63 c-0.14-0.14-0.33-0.3-0.59-0.46c0.14-0.06,0.3-0.08,0.45-0.08h0.01c0.63,0.02,1.14,0.55,1.12,1.19 c-0.01,0.36-0.19,0.67-0.45,0.88l-0.01,0.19c-0.01,0.37,0.28,0.66,0.64,0.67l1.14,0.03l-0.02,0.74h-0.12 c-0.9-0.02-1.73,0.68-1.84,1.58c-0.16,1.25-0.26,2.89-0.11,4.2c0.09,0.8,1.39,0.69,1.71,0.57 c0.43-0.16,0.67-0.37,0.79-0.58c0.06-0.1,0.09-0.2,0.11-0.29c-0.03,0-0.06,0.01-0.08,0.01c-0.03,0.01-0.06,0.01-0.09,0.02 c-0.02,0-0.04,0.01-0.06,0.01c-0.23,0.04-0.42,0.08-0.54,0.12c-0.05,0.01-0.1-0.04-0.08-0.09 c0.15-0.31,0.36-0.79,0.47-1.12c0.19-0.51,0.31-1,0.38-1.41c0.01-0.05,0.08-0.07,0.11-0.03l1.65,2.2 c0.03,0.04,0,0.11-0.05,0.11c-0.17,0-0.45,0.02-0.75,0.06c-0.02,0-0.05,0.01-0.07,0.01c0,0.08,0.01,0.16,0,0.24 c-0.01,0.49-0.15,0.98-0.48,1.37c-0.16,0.19-0.35,0.34-0.54,0.45c-0.52,0.33-1.13,0.46-1.69,0.76 c-0.51,0.28-1.04,0.7-1.48,1.08c-0.43-0.4-0.93-0.86-1.42-1.16c-0.45-0.27-0.93-0.45-1.36-0.68 c-0.3-0.17-0.57-0.36-0.8-0.64c-0.33-0.43-0.43-0.91-0.42-1.41c0-0.07,0.01-0.15,0.02-0.23c-0.01,0-0.02,0-0.04-0.01 c-0.32-0.06-0.6-0.1-0.78-0.1C189.35,85.41,189.32,85.34,189.36,85.3z M186.51,76.43c0,0.92-0.57,1.67-1.29,1.67 c-0.71,0-1.29-0.75-1.29-1.67c0-0.92,0.57-1.67,1.29-1.67C185.94,74.75,186.51,75.51,186.51,76.43z"></path> </g> <path class="st10" d="M196.38,32.32v1.64h29.55v2.58c-0.05,0.16-0.08,0.34-0.08,0.52v0.25V43c0,0.66,0.32,1.2,0.71,1.2h9.14 c0.4,0,0.71-0.53,0.71-1.2v-5.68v-0.25c0-0.41-0.13-0.75-0.32-0.97v-2.14h10.81v39.28v1.74v12.58h-1.8v2.76h6.27v-2.76 h-1.26V73.23h18.25v14.33h-1.48v2.76h6.27v-2.76h-1.56v-53.6h15.3v-1.64l-7.04-7.78h-8.26v-7.39h-0.03L250.08,1.44 c-0.17-0.83-0.8-1.44-1.56-1.44c-0.83,0-1.5,0.74-1.59,1.7l-33.97,22.86h-9.38L196.38,32.32z M273.8,32.32l5.54-6.09 l-0.05-0.06h0.1l-0.05,0.06l5.54,6.09H273.8z M271.6,32.32v-6.15h6.18l-5.59,6.15H271.6z M268.39,20.01h-18.25V5.22 l18.25,14.04V20.01z M268.39,22.36h-18.25v-0.95h18.25V22.36z M268.39,24.54h-18.25v-0.78h18.25V24.54z M254.72,32.32h-4.58 v-5.03L254.72,32.32z M250.72,26.18h12l-5.59,6.15h-0.81L250.72,26.18z M268.39,29.03l-2.59-2.85h2.59V29.03z M268.39,32.32 h-9.67l5.54-6.09l-0.05-0.06h0.11l-0.05,0.06l4.13,4.55L268.39,32.32L268.39,32.32z M268.39,38.67h-18.25v-4.71h18.25V38.67 z M250.53,40.56l15.08,12.68h-15.47V40.56H250.53z M268.39,53.24L268.39,53.24l-15.09-12.68h15.09V53.24z M268.39,69.02 l-16.51-13.89h16.51V69.02z M250.14,69.45V55.99l16,13.46H250.14z M238.33,8.6L218.5,24.54h-3.86L238.33,8.6z M246.92,24.54 H220l26.92-21.62V24.54z M243.64,32.32l3.28-3.61v3.61H243.64z M241.24,32.32l-5.59-6.15h11.28v0.79l-4.88,5.36H241.24z M228.57,32.32l5.54-6.09l-0.05-0.06h0.11l-0.05,0.06l5.54,6.09H228.57z M227.33,35.87v-1.91h7.38v1.91H227.33z M220.56,26.18h12l-5.59,6.15h-0.81L220.56,26.18z M213.49,32.32l5.54-6.09l-0.05-0.06h0.11l-0.05,0.06l5.54,6.09H213.49z M211.08,32.32l-5.59-6.15h12l-5.59,6.15H211.08z M198.42,32.32l5.54-6.09l-0.05-0.06h0.11l-0.05,0.06l5.54,6.09H198.42z"></path> <path class="st2" d="M602.15,95.33h-360.4c-1.23,0-2.23-1.09-2.23-2.43c0-1.35,1-2.43,2.23-2.43h360.4 c1.23,0,2.23,1.09,2.23,2.43C604.38,94.23,603.37,95.33,602.15,95.33z"></path> <line class="st12" x1="1158.25" y1="91.91" x2="1196.37" y2="91.91"></line> <path class="st12" d="M1158.25,91.91"></path> <path class="st12" d="M1011.5,91.91"></path> <line class="st12" x1="600" y1="91.91" x2="1011.5" y2="91.91"></line> <rect y="91.15" class="st11" width="241.8" height="2.69"></rect> <g> <path class="st10" d="M21.78,60.04v-0.03v11.31h-2.67v3.31h2.67h2.34h2h2.73h6.26l2.88,5.52h2.56h2.97h5.87l-5.87-5.87 V60.01v0.02h-1.81l-0.52-1.37h-9.98l-0.52,1.37h-1.81v-0.02h-2.73v0.03C26.14,60.04,21.78,60.04,21.78,60.04z M39.02,62.5 h2.96v1.71h-2.96V62.5z M33.79,62.5h4.58v1.71h-4.58V62.5z M30.36,62.5h2.77v1.71h-2.77V62.5z"></path> <path class="st11" d="M65.9,79.95h1.9v-0.5v-11h-1.9v0.64H54.51v-0.64h-1.9v11v0.5h1.9v-0.5v-0.2H65.9v0.2 C65.9,79.44,65.9,79.95,65.9,79.95z M56.57,77.35H55.7v-6.29h0.86V77.35z M59.28,77.35h-0.86v-6.29h0.86V77.35z M62,77.35 h-0.86v-6.29H62V77.35z M64.71,77.35h-0.86v-6.29h0.86V77.35z"></path> <path class="st11" d="M81.98,79.95h1.9v-0.5v-11h-1.9v0.64H70.59v-0.64h-1.9v11v0.5h1.9v-0.5v-0.2h11.39v0.2V79.95z M72.65,77.35h-0.86v-6.29h0.86V77.35z M75.36,77.35H74.5v-6.29h0.86V77.35z M78.08,77.35h-0.86v-6.29h0.86V77.35z M80.79,77.35h-0.86v-6.29h0.86V77.35z"></path> <path class="st11" d="M98.07,79.95h1.9v-0.5v-11h-1.9v0.64H86.67v-0.64h-1.9v11v0.5h1.9v-0.5v-0.2h11.39v0.2 C98.07,79.44,98.07,79.95,98.07,79.95z M88.73,77.35h-0.86v-6.29h0.86V77.35z M91.45,77.35h-0.86v-6.29h0.86V77.35z M94.16,77.35H93.3v-6.29h0.86V77.35z M96.87,77.35h-0.86v-6.29h0.86V77.35z"></path> <path class="st11" d="M114.59,79.95h1.9v-0.5v-11h-1.9v0.64H103.2v-0.64h-1.9v11v0.5h1.9v-0.5v-0.2h11.39v0.2V79.95z M105.26,77.35h-0.86v-6.29h0.86V77.35z M107.97,77.35h-0.86v-6.29h0.86V77.35z M110.69,77.35h-0.86v-6.29h0.86V77.35z M113.4,77.35h-0.86v-6.29h0.86V77.35z"></path> <path class="st11" d="M65.9,67.54h1.9v-0.5v-11h-1.9v0.64H54.51v-0.64h-1.9v11v0.5h1.9v-0.5v-0.2H65.9v0.2 C65.9,67.04,65.9,67.54,65.9,67.54z M56.57,64.94H55.7v-6.3h0.86V64.94z M59.28,64.94h-0.86v-6.3h0.86V64.94z M62,64.94 h-0.86v-6.3H62V64.94z M64.71,64.94h-0.86v-6.3h0.86V64.94z"></path> <path class="st11" d="M81.98,67.54h1.9v-0.5v-11h-1.9v0.64H70.59v-0.64h-1.9v11v0.5h1.9v-0.5v-0.2h11.39v0.2V67.54z M72.65,64.94h-0.86v-6.3h0.86V64.94z M75.36,64.94H74.5v-6.3h0.86V64.94z M78.08,64.94h-0.86v-6.3h0.86V64.94z M80.79,64.94h-0.86v-6.3h0.86V64.94z"></path> <path class="st11" d="M98.07,67.54h1.9v-0.5v-11h-1.9v0.64H86.67v-0.64h-1.9v11v0.5h1.9v-0.5v-0.2h11.39v0.2 C98.07,67.04,98.07,67.54,98.07,67.54z M88.73,64.94h-0.86v-6.3h0.86V64.94z M91.45,64.94h-0.86v-6.3h0.86V64.94z M94.16,64.94H93.3v-6.3h0.86V64.94z M96.87,64.94h-0.86v-6.3h0.86V64.94z"></path> <path class="st11" d="M114.59,67.54h1.9v-0.5v-11h-1.9v0.64H103.2v-0.64h-1.9v11v0.5h1.9v-0.5v-0.2h11.39v0.2V67.54z M105.26,64.94h-0.86v-6.3h0.86V64.94z M107.97,64.94h-0.86v-6.3h0.86V64.94z M110.69,64.94h-0.86v-6.3h0.86V64.94z M113.4,64.94h-0.86v-6.3h0.86V64.94z"></path> <path class="st10" d="M13.69,89.48c3.01,1,4.71,3.27,5.14,3.93c0.06-0.02,0.13-0.04,0.18-0.07 c2.34-0.93,3.89-2.46,4.06-3.17l0.24-1.01l0.98,0.33c3.01,1,4.7,3.27,5.14,3.93c0.06-0.02,0.13-0.04,0.18-0.07 c2.34-0.93,3.89-2.46,4.06-3.17l0.24-1.01l0.98,0.33c3.01,1,4.71,3.27,5.14,3.93c0.06-0.02,0.13-0.04,0.18-0.07 c2.34-0.93,3.89-2.46,4.06-3.17l0.24-1.01l0.98,0.33c3.01,1,4.71,3.27,5.14,3.93c0.06-0.02,0.13-0.04,0.18-0.07 c2.34-0.93,3.89-2.46,4.06-3.17l0.24-1.01l0.98,0.33c3.01,1,4.71,3.27,5.14,3.93c0.06-0.02,0.13-0.04,0.18-0.07 c2.34-0.93,3.89-2.46,4.06-3.17l0.24-1.01l0.98,0.33c3.01,1,4.71,3.27,5.14,3.93c0.06-0.02,0.13-0.04,0.18-0.07 c2.34-0.93,3.89-2.46,4.06-3.17l0.24-1.01l0.98,0.33c3.01,1,4.71,3.27,5.14,3.93c0.06-0.02,0.13-0.04,0.18-0.07 c2.34-0.93,3.89-2.46,4.06-3.17l0.24-1.01l0.98,0.33c3.01,1,4.71,3.27,5.14,3.93c0.06-0.02,0.13-0.04,0.18-0.07 c2.34-0.93,3.89-2.46,4.06-3.17l0.24-1.01l0.98,0.33c3.01,1,4.71,3.27,5.14,3.93c0.06-0.02,0.13-0.04,0.18-0.07 c2.34-0.93,3.89-2.46,4.06-3.17l0.24-1.01l0.98,0.33c3.01,1,4.71,3.27,5.14,3.93c0.06-0.02,0.13-0.04,0.18-0.07 c2.34-0.93,3.89-2.46,4.06-3.17l0.24-1.01l0.98,0.33c3.01,1,4.71,3.27,5.14,3.93c0.06-0.02,0.13-0.04,0.18-0.07 c1.13-0.45,2.07-1.03,2.76-1.6c-0.29-0.41-0.64-0.76-1.06-1.04c-0.11-0.08-0.23-0.15-0.36-0.21l3.73-11.17h-13.74 l-2.92,2.88H55.11h-9.88h-0.18h-8.69l-1.65-3.18l-1.62-3.13h-4.58h-3.12h-4.96H11.1H8.54v3.43l5,10.1L13.69,89.48z"></path> </g> <g> <path class="st1" d="M316.74,83.87h1.65v-0.44v-9.54h-1.65v0.56h-9.89v-0.56h-1.65v9.54v0.44h1.65v-0.44v-0.18h9.89v0.18 V83.87z M308.63,81.61h-0.75v-5.47h0.75V81.61z M310.98,81.61h-0.75v-5.47h0.75V81.61z M313.35,81.61h-0.75v-5.47h0.75 V81.61z M315.7,81.61h-0.75v-5.47h0.75V81.61z"></path> <path class="st1" d="M333.95,83.87h1.65v-0.44v-9.54h-1.65v0.56h-9.89v-0.56h-1.65v9.54v0.44h1.65v-0.44v-0.18h9.89v0.18 V83.87z M325.84,81.61h-0.75v-5.47h0.75V81.61z M328.2,81.61h-0.75v-5.47h0.75V81.61z M330.55,81.61h-0.75v-5.47h0.75 V81.61z M332.91,81.61h-0.75v-5.47h0.75V81.61z"></path> <g> <rect x="302.68" y="84.37" class="st2" width="39.46" height="2.26"></rect> <rect x="301.28" y="84.89" class="st2" width="1.4" height="1.21"></rect> <g> <path class="st2" d="M301.28,84.37h-0.31c-0.17,0.25-0.28,0.66-0.28,1.13s0.11,0.88,0.28,1.13h0.31V84.37z"></path> </g> <rect x="342.14" y="84.89" class="st2" width="1.4" height="1.21"></rect> <g> <path class="st2" d="M343.54,84.37h0.31c0.17,0.25,0.28,0.66,0.28,1.13s-0.11,0.88-0.28,1.13h-0.31V84.37z"></path> </g> </g> <g> <circle class="st2" cx="306" cy="88.85" r="1.66"></circle> <circle class="st2" cx="311.79" cy="88.85" r="1.66"></circle> <g> <path class="st2" d="M308.11,88.85h1.57l0,0c0-0.3,0.07-0.58,0.18-0.83h-1.92C308.04,88.27,308.11,88.55,308.11,88.85z"></path> </g> <circle class="st2" cx="333.03" cy="88.85" r="1.66"></circle> <circle class="st2" cx="338.82" cy="88.85" r="1.66"></circle> <g> <path class="st2" d="M335.14,88.85h1.57l0,0c0-0.3,0.07-0.58,0.18-0.83h-1.92C335.07,88.27,335.14,88.55,335.14,88.85z"></path> </g> </g> </g> <g> <path class="st1" d="M414.17,68.79h1.82V68.3V57.75h-1.82v0.62h-10.94v-0.62h-1.82V68.3v0.49h1.82V68.3v-0.19h10.94v0.2 V68.79z M405.2,66.3h-0.83v-6.05h0.83V66.3z M407.8,66.3h-0.83v-6.05h0.83V66.3z M410.41,66.3h-0.83v-6.05h0.83V66.3z M413.02,66.3h-0.83v-6.05h0.83V66.3z"></path> <path class="st1" d="M392.5,82.95h1.82v-0.49V71.9h-1.82v0.62h-10.94V71.9h-1.82v10.56v0.49h1.82v-0.49v-0.2h10.94v0.2 V82.95z M383.54,80.45h-0.83v-6.05h0.83V80.45z M386.15,80.45h-0.83v-6.05h0.83V80.45z M388.75,80.45h-0.83v-6.05h0.83 V80.45z M391.36,80.45h-0.83v-6.05h0.83V80.45z"></path> <g> <rect x="376.95" y="83.51" class="st2" width="43.66" height="2.5"></rect> <rect x="420.61" y="84.09" class="st2" width="1.55" height="1.34"></rect> <g> <path class="st2" d="M422.16,83.51h0.35c0.19,0.28,0.31,0.74,0.31,1.25c0,0.51-0.12,0.97-0.31,1.25h-0.35V83.51z"></path> </g> <rect x="375.39" y="84.09" class="st2" width="1.55" height="1.34"></rect> <g> <path class="st2" d="M375.39,83.51h-0.35c-0.19,0.28-0.31,0.74-0.31,1.25c0,0.51,0.12,0.97,0.31,1.25h0.35V83.51z"></path> </g> </g> <g> <circle class="st2" cx="412.5" cy="88.85" r="1.6"></circle> <circle class="st2" cx="406.93" cy="88.85" r="1.6"></circle> <g> <path class="st2" d="M410.47,88.85h-1.51l0,0c0-0.28-0.07-0.55-0.17-0.79h1.85C410.53,88.3,410.47,88.56,410.47,88.85z"></path> </g> <circle class="st2" cx="386.49" cy="88.85" r="1.6"></circle> <circle class="st2" cx="380.91" cy="88.85" r="1.6"></circle> <g> <path class="st2" d="M384.45,88.85h-1.51l0,0c0-0.28-0.07-0.55-0.17-0.79h1.85C384.52,88.3,384.45,88.56,384.45,88.85z"></path> </g> </g> <g> <polygon class="st1" points="408.6,52.33 415.9,57.74 416.88,57.74 408.6,51.45 400.33,57.74 401.31,57.74 "></polygon> </g> <g> <g> <path class="st2" d="M355.7,91.2l5.34-52.34h10.2l-14.34,52.57L355.7,91.2L355.7,91.2z M357.66,83.98l11.98-43.9h-7.5 L357.66,83.98L357.66,83.98z"></path> </g> <g> <path class="st2" d="M360.4,75.07l-2.58-2.58c-0.24-0.23-0.24-0.63,0-0.86l0,0l4.08-4.08l-3.25-3.25 c-0.23-0.23-0.23-0.63,0-0.86l0,0l6.01-6.01l-4.81-4.81c-0.13-0.13-0.2-0.31-0.18-0.49l0,0 c0.02-0.18,0.11-0.35,0.26-0.45l0,0l7.65-5.34l-6.44-6.44l0,0c-0.23-0.23-0.24-0.63,0-0.86l0,0 c0.23-0.23,0.63-0.23,0.86,0l0,0l6.95,6.95c0.13,0.13,0.2,0.31,0.18,0.49l0,0c-0.02,0.18-0.11,0.35-0.26,0.45l0,0 l-7.65,5.34l4.73,4.73c0.11,0.11,0.18,0.27,0.18,0.43l0,0c0,0.16-0.07,0.32-0.18,0.43l0,0l-6.01,6.01l3.24,3.25 c0.11,0.11,0.18,0.27,0.18,0.43l0,0c0,0.16-0.07,0.32-0.18,0.43l0,0l-4.08,4.08l2.15,2.15c0.24,0.23,0.24,0.63,0,0.86 l0,0c-0.12,0.12-0.27,0.18-0.43,0.18l0,0C360.68,75.25,360.53,75.18,360.4,75.07L360.4,75.07z"></path> </g> <g> <path class="st2" d="M443.59,91.2l-1.2,0.22l-14.34-52.57h10.19L443.59,91.2L443.59,91.2z M441.63,83.98l-4.48-43.9h-7.5 L441.63,83.98L441.63,83.98z"></path> </g> <g> <path class="st2" d="M438.88,75.07l2.58-2.58c0.24-0.23,0.24-0.63,0-0.86l0,0l-4.08-4.08l3.25-3.25 c0.24-0.23,0.24-0.63,0-0.86l0,0l-6.01-6.01l4.81-4.81c0.13-0.13,0.2-0.31,0.18-0.49l0,0c-0.02-0.18-0.11-0.35-0.26-0.45 l0,0l-7.65-5.34l6.44-6.44l0,0c0.24-0.23,0.24-0.63,0-0.86l0,0c-0.23-0.23-0.63-0.23-0.86,0l0,0l-6.95,6.95 c-0.13,0.13-0.2,0.31-0.18,0.49l0,0c0.02,0.18,0.11,0.35,0.26,0.45l0,0l7.65,5.34L433.32,57 c-0.11,0.11-0.18,0.27-0.18,0.43l0,0c0,0.16,0.07,0.32,0.18,0.43l0,0l6.01,6.01l-3.25,3.25 c-0.11,0.11-0.18,0.27-0.18,0.43l0,0c0,0.16,0.07,0.32,0.18,0.43l0,0l4.08,4.08l-2.15,2.15c-0.23,0.23-0.23,0.63,0,0.86 l0,0c0.12,0.12,0.27,0.18,0.43,0.18l0,0C438.6,75.25,438.76,75.18,438.88,75.07L438.88,75.07z"></path> </g> </g> <g> <rect x="349.07" y="30.63" class="st2" width="101.14" height="9.45"></rect> <polygon class="st2" points="360.91,40.08 349.07,40.08 353.29,50.41 359.85,50.41 "></polygon> <rect x="402" y="37.58" class="st2" width="13.2" height="2.49"></rect> <rect x="403.15" y="37.58" class="st2" width="10.9" height="2.49"></rect> </g> <polygon class="st2" points="408.6,43.05 403.15,40.08 414.05,40.08 "></polygon> <rect x="406.81" y="41.05" class="st2" width="0.85" height="5.86"></rect> <rect x="408.18" y="47.63" class="st1" width="0.85" height="4.7"></rect> <rect x="409.53" y="41.05" class="st2" width="0.85" height="5.86"></rect> <circle class="st2" cx="408.6" cy="46.58" r="2.48"></circle> <g> <polygon class="st13" points="356.73,47.84 358.88,47.84 359.69,40.08 356.73,40.08 "></polygon> </g> <rect x="349.87" y="36.62" class="st4" width="99.54" height="0.96"></rect> </g> <path class="st14" d="M103.48,94.02c0,0-1.13-1.88-3.38-2.63c-0.38,1.59-5.07,4.6-8.17,2.53"></path> <path class="st14" d="M95.93,94.02c0,0-1.13-1.88-3.38-2.63c-0.38,1.59-5.07,4.6-8.17,2.53"></path> <path class="st14" d="M88.38,94.02c0,0-1.13-1.88-3.38-2.63c-0.38,1.59-5.07,4.6-8.17,2.53"></path> <path class="st14" d="M80.83,94.02c0,0-1.13-1.88-3.38-2.63c-0.38,1.59-5.07,4.6-8.17,2.53"></path> <path class="st14" d="M73.28,94.02c0,0-1.13-1.88-3.38-2.63c-0.38,1.59-5.07,4.6-8.17,2.53"></path> <path class="st14" d="M65.73,94.02c0,0-1.13-1.88-3.38-2.63c-0.38,1.59-5.07,4.6-8.17,2.53"></path> <path class="st14" d="M58.18,94.02c0,0-1.13-1.88-3.38-2.63c-0.38,1.59-5.07,4.6-8.17,2.53"></path> <path class="st14" d="M50.63,94.02c0,0-1.13-1.88-3.38-2.63c-0.38,1.59-5.07,4.6-8.17,2.53"></path> <path class="st14" d="M43.08,94.02c0,0-1.13-1.88-3.38-2.63c-0.38,1.59-5.07,4.6-8.17,2.53"></path> <path class="st14" d="M35.53,94.02c0,0-1.13-1.88-3.38-2.63c-0.38,1.59-5.07,4.6-8.17,2.53"></path> <path class="st14" d="M187.7,94.02c0,0-1.13-1.88-3.38-2.63c-0.38,1.59-5.07,4.6-8.17,2.53"></path> <path class="st14" d="M195.66,94.02c0,0-1.13-1.88-3.38-2.63c-0.38,1.59-5.07,4.6-8.17,2.53"></path> <path class="st14" d="M203.63,94.02c0,0-1.13-1.88-3.38-2.63c-0.38,1.59-5.07,4.6-8.17,2.53"></path> <path class="st14" d="M211.59,94.02c0,0-1.13-1.88-3.38-2.63c-0.38,1.59-5.07,4.6-8.17,2.53"></path> <path class="st14" d="M219.55,94.02c0,0-1.13-1.88-3.38-2.63c-0.38,1.59-5.07,4.6-8.17,2.53"></path> <path class="st14" d="M227.53,94.02c0,0-1.13-1.88-3.38-2.63c-0.38,1.59-5.07,4.6-8.17,2.53"></path> <path class="st14" d="M180.14,94.02c0,0-1.13-1.88-3.38-2.63c-0.38,1.59-5.07,4.6-8.17,2.53"></path> <path class="st14" d="M172.59,94.02c0,0-1.13-1.88-3.38-2.63c-0.38,1.59-5.07,4.6-8.17,2.53"></path> <path class="st14" d="M165.05,94.02c0,0-1.13-1.88-3.38-2.63c-0.38,1.59-5.07,4.6-8.17,2.53"></path> <path class="st14" d="M157.49,94.02c0,0-1.13-1.88-3.38-2.63c-0.38,1.59-5.07,4.6-8.17,2.53"></path> <path class="st14" d="M149.94,94.02c0,0-1.13-1.88-3.38-2.63c-0.38,1.59-5.07,4.6-8.17,2.53"></path> <path class="st14" d="M142.4,94.02c0,0-1.13-1.88-3.38-2.63c-0.38,1.59-5.07,4.6-8.17,2.53"></path> <path class="st14" d="M134.85,94.02c0,0-1.13-1.88-3.38-2.63c-0.38,1.59-5.07,4.6-8.17,2.53"></path> <path class="st14" d="M127.29,94.02c0,0-1.13-1.88-3.38-2.63c-0.38,1.59-5.07,4.6-8.17,2.53"></path> <path class="st14" d="M119.75,94.02c0,0-1.13-1.88-3.38-2.63c-0.38,1.59-5.07,4.6-8.17,2.53"></path> <g> <rect x="608.83" y="54.99" class="st13" width="6.09" height="34.71"></rect> <rect x="608.83" y="46.83" class="st13" width="6.5" height="6.5"></rect> <polygon class="st15" points="623.88,89.76 618.16,89.76 618.16,55.92 623.88,57.2 "></polygon> <polygon class="st15" points="624.25,55.44 615.33,53.39 615.33,46.89 624.25,49.34 "></polygon> </g> <g> <circle class="st5" cx="651.57" cy="88.01" r="2.71"></circle> <path class="st5" d="M651.57,89.93c-1.06,0-1.92-0.86-1.92-1.92c0-1.06,0.86-1.92,1.92-1.92c1.06,0,1.92,0.86,1.92,1.92 C653.48,89.07,652.62,89.93,651.57,89.93L651.57,89.93z"></path> <path class="st5" d="M651.57,89.5c-0.82,0-1.49-0.67-1.49-1.49c0-0.82,0.66-1.49,1.49-1.49c0.82,0,1.48,0.66,1.48,1.49 C653.05,88.83,652.39,89.5,651.57,89.5L651.57,89.5z"></path> <path class="st4" d="M651.57,89.09c-0.59,0-1.08-0.48-1.08-1.08s0.48-1.08,1.08-1.08s1.08,0.48,1.08,1.08 S652.16,89.09,651.57,89.09L651.57,89.09z"></path> <circle class="st5" cx="676.7" cy="88.01" r="2.71"></circle> <path class="st5" d="M676.7,89.93c-1.06,0-1.92-0.86-1.92-1.92c0-1.06,0.86-1.92,1.92-1.92c1.06,0,1.92,0.86,1.92,1.92 C678.62,89.07,677.76,89.93,676.7,89.93L676.7,89.93z"></path> <path class="st5" d="M676.7,89.5c-0.82,0-1.49-0.67-1.49-1.49c0-0.82,0.66-1.49,1.49-1.49c0.82,0,1.48,0.66,1.48,1.49 C678.19,88.83,677.52,89.5,676.7,89.5L676.7,89.5z"></path> <path class="st4" d="M676.7,89.09c-0.59,0-1.08-0.48-1.08-1.08s0.48-1.08,1.08-1.08c0.59,0,1.08,0.48,1.08,1.08 C677.78,88.6,677.29,89.09,676.7,89.09L676.7,89.09z"></path> <circle class="st5" cx="670.37" cy="88.01" r="2.71"></circle> <path class="st5" d="M670.37,89.93c-1.06,0-1.92-0.86-1.92-1.92c0-1.06,0.86-1.92,1.92-1.92c1.06,0,1.92,0.86,1.92,1.92 C672.29,89.07,671.43,89.93,670.37,89.93L670.37,89.93z"></path> <path class="st4" d="M670.37,89.5c-0.82,0-1.49-0.67-1.49-1.49c0-0.82,0.66-1.49,1.49-1.49c0.82,0,1.49,0.66,1.49,1.49 C671.86,88.83,671.19,89.5,670.37,89.5L670.37,89.5z"></path> <path class="st5" d="M670.37,89.09c-0.59,0-1.08-0.48-1.08-1.08s0.48-1.08,1.08-1.08s1.08,0.48,1.08,1.08 S670.96,89.09,670.37,89.09L670.37,89.09z"></path> <g> <g> <path class="st5" d="M645.7,85.74h-0.75c0.03,0.44,0.07,0.8,0.11,1.09h0.63c0.01,0,0.01,0,0.01,0 c0.3-0.01,0.52-0.25,0.52-0.54C646.24,85.98,646,85.74,645.7,85.74z"></path> </g> </g> <circle class="st5" cx="709.3" cy="88.01" r="2.71"></circle> <path class="st5" d="M709.3,89.93c-1.06,0-1.92-0.86-1.92-1.92c0-1.06,0.86-1.92,1.92-1.92c1.06,0,1.92,0.86,1.92,1.92 C711.21,89.07,710.35,89.93,709.3,89.93L709.3,89.93z"></path> <path class="st5" d="M709.3,89.5c-0.82,0-1.49-0.67-1.49-1.49c0-0.82,0.66-1.49,1.49-1.49c0.82,0,1.49,0.66,1.49,1.49 C710.78,88.83,710.12,89.5,709.3,89.5L709.3,89.5z"></path> <path class="st4" d="M709.3,89.09c-0.59,0-1.08-0.48-1.08-1.08s0.48-1.08,1.08-1.08c0.59,0,1.08,0.48,1.08,1.08 C710.37,88.6,709.89,89.09,709.3,89.09L709.3,89.09z"></path> <circle class="st5" cx="696.63" cy="88.01" r="2.71"></circle> <path class="st5" d="M696.63,89.93c-1.06,0-1.92-0.86-1.92-1.92c0-1.06,0.86-1.92,1.92-1.92c1.06,0,1.92,0.86,1.92,1.92 C698.55,89.07,697.69,89.93,696.63,89.93L696.63,89.93z"></path> <path class="st5" d="M696.63,89.5c-0.82,0-1.49-0.67-1.49-1.49c0-0.82,0.67-1.49,1.49-1.49c0.82,0,1.49,0.66,1.49,1.49 C698.12,88.83,697.45,89.5,696.63,89.5L696.63,89.5z"></path> <path class="st4" d="M696.63,89.09c-0.59,0-1.08-0.48-1.08-1.08s0.48-1.08,1.08-1.08c0.59,0,1.08,0.48,1.08,1.08 S697.22,89.09,696.63,89.09L696.63,89.09z"></path> <circle class="st5" cx="702.96" cy="88.01" r="2.71"></circle> <path class="st5" d="M702.96,89.93c-1.06,0-1.92-0.86-1.92-1.92c0-1.06,0.86-1.92,1.92-1.92c1.06,0,1.92,0.86,1.92,1.92 C704.88,89.07,704.02,89.93,702.96,89.93L702.96,89.93z"></path> <path class="st5" d="M702.96,89.5c-0.82,0-1.49-0.67-1.49-1.49c0-0.82,0.67-1.49,1.49-1.49c0.82,0,1.49,0.66,1.49,1.49 C704.45,88.83,703.78,89.5,702.96,89.5L702.96,89.5z"></path> <path class="st4" d="M702.96,89.09c-0.59,0-1.08-0.48-1.08-1.08s0.48-1.08,1.08-1.08c0.59,0,1.08,0.48,1.08,1.08 C704.04,88.6,703.55,89.09,702.96,89.09L702.96,89.09z"></path> <polygon class="st5" points="666.26,88.01 655.68,88.01 655.68,85.28 667.35,85.28 "></polygon> <g> <polygon class="st5" points="685.48,85.28 685.48,88.01 680.81,88.01 679.73,85.28 "></polygon> </g> <path class="st7" d="M663.13,80.98v-0.22h44.72v0.22v0.54h2.06v-0.54v-11.9h-2.06v0.69h-44.72v-0.69h-2.06v11.9v0.54h2.06 V80.98z"></path> <g> <path class="st5" d="M644.27,83.93c0.13-9.01,5.21-9.07,5.21-9.07h5.14c0.69,0,1.06,0.46,1.06,1.06V88h-0.85 c0-1.8-1.46-3.26-3.27-3.26c-1.81,0-3.27,1.46-3.27,3.26h-3.6C644.3,86.72,644.27,83.93,644.27,83.93z"></path> </g> <g> <path class="st4" d="M649.29,75.97c-2.5,0-3.65,2.89-4.12,5.45l4.82-1.75l0.38-3.71L649.29,75.97L649.29,75.97z"></path> <path class="st4" d="M650.9,75.97l-0.36,3.5c0.63-0.24,1.15-0.81,1.32-1.34l0.68-2.17H650.9z"></path> </g> <path class="st5" d="M655.68,71.11V73c0,0.69-0.55,1.25-1.25,1.25h-5.47C648.28,74.25,655.68,70.42,655.68,71.11z"></path> <rect x="657.71" y="82.4" class="st5" width="57.48" height="1.99"></rect> <rect x="673.24" y="71.9" class="st4" width="0.93" height="6.81"></rect> <rect x="670.29" y="71.9" class="st4" width="0.93" height="6.81"></rect> <rect x="667.36" y="71.9" class="st4" width="0.93" height="6.81"></rect> <rect x="664.42" y="71.9" class="st4" width="0.93" height="6.81"></rect> <rect x="685.52" y="71.9" class="st4" width="0.93" height="6.81"></rect> <rect x="682.58" y="71.9" class="st4" width="0.93" height="6.81"></rect> <rect x="679.65" y="71.9" class="st4" width="0.93" height="6.81"></rect> <rect x="676.71" y="71.9" class="st4" width="0.93" height="6.81"></rect> <rect x="697.81" y="71.9" class="st4" width="0.93" height="6.81"></rect> <rect x="694.88" y="71.9" class="st4" width="0.93" height="6.81"></rect> <rect x="691.94" y="71.9" class="st4" width="0.93" height="6.81"></rect> <rect x="689" y="71.9" class="st4" width="0.93" height="6.81"></rect> <rect x="707.16" y="71.9" class="st4" width="0.93" height="6.81"></rect> <rect x="704.22" y="71.9" class="st4" width="0.93" height="6.81"></rect> <rect x="701.29" y="71.9" class="st4" width="0.93" height="6.81"></rect> </g> <g> <g> <g> <polygon class="st5" points="821.19,70.89 821.19,91.4 845.99,91.4 845.99,80.11 856.24,80.11 856.24,91.4 884.64,91.4 884.64,70.89 "></polygon> </g> <path class="st5" d="M821.52,62.52c0,0.74,0.6,1.34,1.35,1.34h18.18c0.74,0,1.35-0.59,1.35-1.34s-0.6-1.34-1.35-1.34h-0.8 c-1.4-2.78-2.32-7.45-2.32-12.69c0-1.6,0.09-3.15,0.25-4.64h-12.38c0.16,1.49,0.25,3.04,0.25,4.64 c0,5.24-0.92,9.91-2.32,12.69h-0.83C822.12,61.18,821.52,61.78,821.52,62.52z"></path> <path class="st5" d="M842.66,62.87c0,0.55,0.45,0.99,1,0.99h13.4c0.55,0,1-0.44,1-0.99s-0.45-0.99-1-0.99h-0.58 c-1.04-2.05-1.71-5.49-1.71-9.37c0-1.19,0.06-2.31,0.18-3.42h-9.14c0.12,1.11,0.18,2.24,0.18,3.42 c0,3.87-0.68,7.31-1.71,9.37h-0.61C843.1,61.89,842.66,62.32,842.66,62.87z"></path> <polyline class="st7" points="883.86,57.69 883.86,63.71 877.84,63.71 "></polyline> <polyline class="st7" points="876.8,57.69 876.8,63.71 870.77,63.71 "></polyline> <polyline class="st7" points="869.73,57.69 869.73,63.71 863.72,63.71 "></polyline> <rect x="829.33" y="73.87" class="st4" width="5.48" height="2.74"></rect> <rect x="838.19" y="73.87" class="st4" width="5.48" height="2.74"></rect> <rect x="847.04" y="73.87" class="st4" width="5.48" height="2.74"></rect> <rect x="855.91" y="73.87" class="st4" width="5.48" height="2.74"></rect> <rect x="864.77" y="73.87" class="st4" width="5.48" height="2.74"></rect> <rect x="873.62" y="73.87" class="st4" width="5.48" height="2.74"></rect> <path class="st16" d="M841.5,41.36c0,1.4,1.43,2.55,3.2,2.55c0.39,0,0.76-0.06,1.11-0.16c0.34,0.88,1.33,1.51,2.47,1.51 c0.31,0,0.6-0.05,0.87-0.13c0.06,0.56,0.54,1,1.14,1c0.63,0,1.14-0.49,1.14-1.12c0-0.48-0.33-0.9-0.77-1.05 c0.15-0.28,0.23-0.58,0.23-0.9c0-1.22-1.17-2.2-2.6-2.2c-0.15,0-0.3,0.01-0.44,0.03c-0.27-1.19-1.58-2.1-3.16-2.1 C842.95,38.81,841.5,39.95,841.5,41.36z"></path> <path class="st16" d="M819.95,33.36c0,1.91,1.95,3.46,4.34,3.46c0.52,0,1.03-0.08,1.5-0.21c0.46,1.19,1.79,2.05,3.35,2.05 c0.42,0,0.81-0.06,1.18-0.17c0.08,0.76,0.74,1.35,1.54,1.35c0.85,0,1.54-0.67,1.54-1.51c0-0.66-0.44-1.23-1.05-1.42 c0.2-0.38,0.31-0.79,0.31-1.23c0-1.64-1.58-2.98-3.53-2.98c-0.2,0-0.4,0.01-0.58,0.04c-0.37-1.61-2.14-2.84-4.27-2.84 C821.9,29.9,819.95,31.45,819.95,33.36z"></path> <rect x="821.19" y="64.25" class="st7" width="63.45" height="1.84"></rect> <rect x="821.19" y="67.01" class="st7" width="63.45" height="1.02"></rect> <rect x="821.19" y="68.95" class="st7" width="63.45" height="1.02"></rect> </g> <path class="st7" d="M825.74,42.09c0,0.45,0.29,0.8,0.63,0.8h13.83c0.35,0,0.63-0.36,0.63-0.8v-0.01 c0-0.45-0.29-0.8-0.63-0.8h-13.83C826.02,41.28,825.74,41.64,825.74,42.09L825.74,42.09z"></path> <path class="st7" d="M846.12,47.8c0,0.33,0.21,0.59,0.46,0.59h10.2c0.26,0,0.46-0.27,0.46-0.59v-0.01 c0-0.33-0.21-0.59-0.46-0.59h-10.2C846.32,47.21,846.12,47.47,846.12,47.8L846.12,47.8z"></path> </g> <circle class="st11" cx="1196.37" cy="91.91" r="3.63"></circle> <g> <g class="st17"> <path class="st18" d="M945.5,64.28v-1.32c0-0.24-0.2-0.44-0.44-0.44s-0.44,0.2-0.44,0.44v1.32c0,0.24,0.2,0.44,0.44,0.44 C945.31,64.73,945.5,64.53,945.5,64.28z"></path> <circle class="st18" cx="945.5" cy="60.74" r="6.8"></circle> <path class="st18" d="M955.21,69.61l-2.27-0.55l-7.42-1.28h-0.92l-7.42,1.28l-2.27,0.55c-1.39,0-2.53,1.23-2.53,2.73 v16.97c0,1.43,1.18,2.61,2.62,2.61c0.67,0,1.29-2.13,1.75-2.54h16.63c0.46,0.42,1.08,2.54,1.75,2.54 c1.44,0,2.62-1.17,2.62-2.61V72.34C957.74,70.84,956.62,69.61,955.21,69.61z M936.75,87.44c0,0.96-0.78,3.6-1.75,3.6 s-1.75-0.78-1.75-1.73V72.34c0-1.01,0.76-1.85,1.66-1.85l1.84-0.55V87.44z M952.2,88.32h-14.64V70.2h14.64V88.32z M956.87,89.31c0,0.96-0.78,1.73-1.75,1.73c-0.97,0-1.75-2.65-1.75-3.6V69.94l1.84,0.55c0.9,0,1.66,0.85,1.66,1.85V89.31z "></path> <polygon class="st18" points="945.73,71.67 945.06,71.67 944.39,71.67 942.99,80.74 945.06,82.85 947.13,80.74 "></polygon> <circle class="st18" cx="944.91" cy="70.42" r="1.25"></circle> <path class="st14" d="M939.56,57.06c0,0,4.52-1.55,6.39,1.46c0.07-1.72-0.29-2.24-0.29-2.24s3.11,0.6,3.28,2.24 c-0.44-2.41-0.44-2.41-0.44-2.41s4.01,1.88,3.8,4.63"></path> </g> <g class="st17"> <path class="st18" d="M971.05,68.23v-1.09c0-0.2-0.16-0.37-0.37-0.37c-0.2,0-0.37,0.16-0.37,0.37v1.09 c0,0.2,0.16,0.37,0.37,0.37C970.87,68.59,971.05,68.43,971.05,68.23z"></path> <circle class="st18" cx="971.05" cy="65.3" r="5.63"></circle> <path class="st18" d="M979.08,72.64l-1.89-0.45l-6.13-1.06h-0.76l-6.13,1.06l-1.89,0.45c-1.16,0-2.1,1.01-2.1,2.26v14.04 c0,1.19,0.98,2.16,2.18,2.16c0.55,0,1.06-1.76,1.44-2.11h13.76c0.39,0.35,0.89,2.11,1.44,2.11c1.2,0,2.18-0.97,2.18-2.16 V74.89C981.18,73.66,980.23,72.64,979.08,72.64z M963.8,87.39c0,0.79-0.65,2.98-1.44,2.98c-0.8,0-1.44-0.64-1.44-1.43 V74.89c0-0.83,0.63-1.53,1.37-1.53l1.52-0.45v14.49C963.82,87.39,963.8,87.39,963.8,87.39z M976.59,88.13h-12.12v-15 h12.12V88.13z M980.45,88.95c0,0.79-0.65,1.43-1.44,1.43c-0.8,0-1.44-2.2-1.44-2.98V72.9l1.52,0.45 c0.74,0,1.37,0.7,1.37,1.53v14.05H980.45z"></path> <polygon class="st18" points="971.22,74.34 970.68,74.34 970.13,74.34 968.97,81.85 970.68,83.6 972.4,81.85 "></polygon> <circle class="st18" cx="970.56" cy="73.31" r="1.03"></circle> <path class="st14" d="M966.11,62.25c0,0,3.74-1.29,5.29,1.22c0.06-1.42-0.24-1.85-0.24-1.85s2.57,0.49,2.72,1.85 c-0.36-2-0.36-2-0.36-2s3.31,1.56,3.15,3.83"></path> </g> <g class="st17"> <path class="st18" d="M921.1,70.65v-0.97c0-0.18-0.15-0.33-0.33-0.33c-0.18,0-0.33,0.15-0.33,0.33v0.97 c0,0.18,0.15,0.33,0.33,0.33S921.1,70.83,921.1,70.65z"></path> <circle class="st18" cx="921.1" cy="68.03" r="5.03"></circle> <path class="st18" d="M928.28,74.6l-1.68-0.41l-5.49-0.95h-0.68l-5.49,0.95l-1.68,0.41c-1.04,0-1.88,0.91-1.88,2.02v12.56 c0,1.07,0.87,1.93,1.94,1.93c0.49,0,0.95-1.57,1.3-1.88h12.3c0.35,0.31,0.8,1.88,1.3,1.88c1.07,0,1.94-0.86,1.94-1.93 V76.61C930.16,75.5,929.31,74.6,928.28,74.6z M914.61,87.79c0,0.7-0.58,2.67-1.3,2.67s-1.3-0.57-1.3-1.29V76.61 c0-0.74,0.56-1.37,1.23-1.37l1.36-0.41L914.61,87.79L914.61,87.79z M926.05,88.44h-10.84V75.03h10.84V88.44z M929.51,89.17c0,0.7-0.58,1.29-1.3,1.29c-0.71,0-1.3-1.96-1.3-2.67V74.83l1.36,0.41c0.66,0,1.23,0.62,1.23,1.37 L929.51,89.17L929.51,89.17z"></path> <polygon class="st18" points="921.26,76.12 920.77,76.12 920.28,76.12 919.24,82.83 920.77,84.4 922.3,82.83 "></polygon> <circle class="st18" cx="920.65" cy="75.2" r="0.92"></circle> <path class="st14" d="M916.68,65.31c0,0,3.34-1.15,4.73,1.09c0.05-1.28-0.22-1.66-0.22-1.66s2.3,0.45,2.43,1.66 c-0.32-1.78-0.32-1.78-0.32-1.78s2.97,1.39,2.81,3.42"></path> </g> </g> <g> <path class="st11" d="M1026.32,91.99c-0.13,0.51-0.25,0.51-0.76,0.51h-2.03c-0.51,0-0.63-0.13-0.76-0.51l-4.31-13.68h2.41 l3.55,12.03h0.25l3.55-12.03h2.28L1026.32,91.99z"></path> <path class="st11" d="M1034.81,79.95h-2.41v-2.28h2.41V79.95z M1034.68,92.37h-2.15V81.47h2.15V92.37z"></path> <path class="st11" d="M1039.49,87.68c0,2.15,0.13,2.53,0.25,2.79c0.13,0.25,0.25,0.25,0.89,0.25h2.79 c0.51,0,0.63-0.13,0.76-0.25c0.13-0.13,0.13-0.38,0.25-1.39h2.03c0,1.65-0.25,2.28-0.76,2.91 c-0.38,0.38-0.76,0.51-1.77,0.51h-3.55c-1.01,0-1.77-0.13-2.15-0.63c-0.76-0.76-0.89-1.52-0.89-4.81s0.25-4.18,0.89-4.81 c0.51-0.51,1.14-0.63,2.15-0.63h3.04c1.01,0,1.77,0.25,2.15,0.63c0.76,0.76,0.89,1.52,0.89,4.81v0.51 c0,0.13,0,0.25-0.25,0.25L1039.49,87.68L1039.49,87.68z M1039.49,85.91h4.94c0-1.9-0.13-2.28-0.25-2.41 c-0.13-0.13-0.25-0.13-0.89-0.13h-2.53c-0.63,0-0.76,0-1.01,0.25C1039.62,83.75,1039.49,84.13,1039.49,85.91z"></path> <path class="st11" d="M1050.38,81.47l1.52,8.61h0.25l1.9-7.98c0.13-0.38,0.25-0.51,0.76-0.51h1.39 c0.51,0,0.63,0.13,0.76,0.51l2.03,7.98h0.25l1.52-8.61h2.03l-2.28,10.39c-0.13,0.51-0.25,0.51-0.76,0.51h-1.52 c-0.51,0-0.63-0.13-0.76-0.51l-1.9-7.85h-0.13l-1.9,7.85c-0.13,0.38-0.25,0.51-0.76,0.51h-1.52 c-0.51,0-0.63-0.13-0.76-0.51l-2.28-10.39C1048.23,81.47,1050.38,81.47,1050.38,81.47z"></path> <path class="st11" d="M1071.03,87.68c0,2.15,0.13,2.53,0.25,2.79c0.13,0.25,0.25,0.25,0.89,0.25h2.79 c0.51,0,0.63-0.13,0.76-0.25c0.13-0.13,0.13-0.38,0.25-1.39h2.03c0,1.65-0.25,2.28-0.76,2.91 c-0.38,0.38-0.76,0.51-1.77,0.51h-3.55c-1.01,0-1.77-0.13-2.15-0.63c-0.76-0.76-0.89-1.52-0.89-4.81s0.25-4.18,0.89-4.81 c0.51-0.51,1.14-0.63,2.15-0.63h3.04c1.01,0,1.77,0.25,2.15,0.63c0.76,0.76,0.89,1.52,0.89,4.81v0.51 c0,0.13,0,0.25-0.25,0.25L1071.03,87.68L1071.03,87.68z M1071.03,85.91h4.94c0-1.9-0.13-2.28-0.25-2.41 c-0.13-0.13-0.25-0.13-0.89-0.13h-2.53c-0.63,0-0.76,0-1.01,0.25C1071.15,83.75,1071.03,84.13,1071.03,85.91z"></path> <path class="st11" d="M1090.53,91.86c-0.51,0.38-1.01,0.51-2.28,0.51h-3.93c-1.39,0-1.9-0.13-2.28-0.51 c-0.76-0.76-1.27-1.77-1.27-6.59c0-4.81,0.51-5.83,1.27-6.59c0.51-0.38,1.01-0.51,2.28-0.51h3.93 c1.39,0,1.9,0.13,2.28,0.51c0.76,0.76,1.14,1.65,1.14,4.05h-2.28c0-1.77-0.25-2.28-0.51-2.53 c-0.13-0.13-0.38-0.25-1.01-0.25h-3.42c-0.63,0-0.89,0.13-1.01,0.25c-0.25,0.25-0.51,0.89-0.51,4.94 c0,4.05,0.25,4.69,0.51,4.94c0.13,0.13,0.38,0.25,1.01,0.25h3.42c0.63,0,0.89-0.13,1.01-0.25 c0.25-0.25,0.38-0.63,0.51-2.66h2.28C1091.67,90.34,1091.29,91.1,1090.53,91.86z"></path> <path class="st11" d="M1094.97,82.11c0.38-0.38,0.89-0.63,1.9-0.63h3.42c1.27,0,1.77,0.25,2.15,0.63 c0.51,0.51,0.63,1.01,0.63,3.04v7.35h-2.28V91.1c-1.27,1.14-1.65,1.39-2.66,1.39h-1.65c-1.01,0-1.52-0.13-2.03-0.51 c-0.38-0.38-0.63-1.01-0.63-2.41c0-1.27,0.25-2.15,0.63-2.53c0.51-0.51,1.01-0.76,3.67-0.76c1.01,0,2.03,0.13,2.66,0.25 v-1.27c0-1.27-0.13-1.65-0.25-1.77c-0.13-0.13-0.38-0.13-1.01-0.13h-2.15c-0.51,0-0.76,0-0.89,0.13 c-0.13,0.13-0.25,0.51-0.25,1.39h-2.03C1094.33,83.12,1094.59,82.49,1094.97,82.11z M1100.79,89.96v-2.28h-2.79 c-1.39,0-1.65,0.13-1.77,0.25c-0.25,0.25-0.25,0.51-0.25,1.14c0,0.76,0,1.14,0.25,1.39c0.13,0.13,0.38,0.13,0.89,0.13h1.52 C1099.4,90.59,1099.78,90.47,1100.79,89.96z"></path> <path class="st11" d="M1111.43,91.99l-1.27,0.38c-0.25,0.13-0.89,0.13-1.39,0.13c-0.76,0-1.27-0.13-1.65-0.51 c-0.38-0.38-0.51-0.89-0.51-1.65v-6.97h-1.9v-1.9h1.9v-2.66h2.15v2.66h2.66v1.9h-2.66v6.33c0,0.51,0,0.63,0.13,0.76 c0.13,0.13,0.25,0.13,0.76,0.13h1.65v1.39C1111.3,91.99,1111.43,91.99,1111.43,91.99z"></path> <path class="st11" d="M1114.47,82.11c0.38-0.38,0.89-0.63,1.9-0.63h3.42c1.27,0,1.77,0.25,2.15,0.63 c0.51,0.51,0.63,1.01,0.63,3.04v7.35h-2.03V91.1c-1.27,1.14-1.65,1.39-2.66,1.39h-1.9c-1.01,0-1.52-0.13-2.03-0.51 c-0.38-0.38-0.63-1.01-0.63-2.41c0-1.27,0.25-2.15,0.63-2.53c0.51-0.51,1.01-0.76,3.67-0.76c1.01,0,2.03,0.13,2.66,0.25 v-1.27c0-1.27-0.13-1.65-0.25-1.77c-0.13-0.13-0.38-0.13-1.01-0.13h-2.15c-0.51,0-0.76,0-0.89,0.13 c-0.13,0.13-0.25,0.51-0.25,1.39h-2.03C1113.84,83.12,1113.96,82.49,1114.47,82.11z M1120.3,89.96v-2.28h-2.79 c-1.39,0-1.65,0.13-1.77,0.25c-0.25,0.25-0.25,0.51-0.25,1.14c0,0.76,0,1.14,0.25,1.39c0.13,0.13,0.38,0.13,0.89,0.13h1.52 C1118.78,90.59,1119.28,90.47,1120.3,89.96z"></path> <path class="st11" d="M1125.36,92.37V77.8h2.15v14.57H1125.36z"></path> <path class="st11" d="M1131.19,91.73c-0.76-0.76-0.89-1.52-0.89-4.81s0.25-4.18,0.89-4.81c0.51-0.51,1.14-0.63,2.15-0.63 h3.17c1.01,0,1.77,0.13,2.15,0.63c0.76,0.76,0.89,1.52,0.89,4.81s-0.25,4.18-0.89,4.81c-0.51,0.51-1.14,0.63-2.15,0.63 h-3.17C1132.33,92.37,1131.7,92.24,1131.19,91.73z M1132.71,90.34c0.13,0.13,0.25,0.25,0.89,0.25h2.66 c0.63,0,0.76,0,0.89-0.25c0.25-0.25,0.25-0.63,0.25-3.42s-0.13-3.17-0.25-3.42c-0.13-0.13-0.25-0.25-0.89-0.25h-2.53 c-0.63,0-0.76,0-0.89,0.25c-0.25,0.25-0.25,0.63-0.25,3.42S1132.58,90.09,1132.71,90.34z"></path> <path class="st11" d="M1144.87,95.66c-0.89,0-1.39-0.51-1.77-0.76c-0.38-0.38-0.63-1.01-0.63-2.15h2.15 c0,0.51,0.13,0.63,0.25,0.76c0.13,0.13,0.25,0.13,0.89,0.13h2.66c0.63,0,0.76,0,1.01-0.13c0.13-0.13,0.25-0.38,0.25-1.39 v-2.28c-1.39,1.14-1.9,1.27-2.79,1.27h-1.52c-1.14,0-1.77-0.25-2.28-0.63c-0.63-0.63-0.89-1.27-0.89-4.18 s0.25-3.67,0.89-4.18c0.51-0.51,1.01-0.63,2.28-0.63h1.52c0.89,0,1.39,0.25,2.79,1.39V81.6h2.15v10.39 c0,1.9-0.13,2.53-0.63,3.04c-0.38,0.38-0.89,0.63-2.15,0.63H1144.87L1144.87,95.66z M1149.55,88.69v-4.81 c-0.89-0.51-1.52-0.63-2.15-0.63h-1.52c-0.63,0-0.89,0.13-1.14,0.25c-0.25,0.25-0.38,0.63-0.38,2.79s0.13,2.41,0.38,2.79 c0.13,0.13,0.51,0.25,1.14,0.25h1.65C1148.16,89.33,1148.67,89.2,1149.55,88.69z"></path> </g> </g> </g> </g> </g> </g> </g> </g> </g> </svg> 