<?xml version="1.0" encoding="UTF-8"?> <!-- Generator: Adobe Illustrator 21.0.2, SVG Export Plug-In . SVG Version: 6.00 Build 0) --> <svg xmlns="http://www.w3.org/2000/svg" xmlns:xlink="http://www.w3.org/1999/xlink" id="Layer_1" x="0px" y="0px" viewBox="0 0 300 95.66" style="enable-background:new 0 0 300 95.66;" xml:space="preserve"> <style type="text/css"> .st0{clip-path:url(#SVGID_2_);} .st1{fill:#26CAD3;} .st2{fill:#62269E;} .st3{opacity:0.62;} .st4{fill:#FFFFFF;} .st5{fill:#333E48;} .st6{fill:#333E48;stroke:#FB3449;stroke-width:1.4591;stroke-miterlimit:10;} .st7{fill:#FB3449;} .st8{fill:none;} .st9{fill:#888494;} .st10{fill:#1C3957;} .st11{fill:#61B4E4;} .st12{fill:none;stroke:#333E48;stroke-width:4.3772;stroke-linecap:round;stroke-linejoin:round;stroke-miterlimit:10;} .st13{fill:#524D62;} .st14{fill:none;stroke:#FFFFFF;stroke-width:1.4591;stroke-miterlimit:10;} .st15{opacity:0.62;fill:#524D62;enable-background:new ;} .st16{fill:#3B3835;} .st17{opacity:0.8;} .st18{fill:#302D29;} </style> <g> <defs> <rect id="SVGID_1_" width="300" height="95.66"></rect> </defs> <clipPath id="SVGID_2_"> <use xlink:href="#SVGID_1_" style="overflow:visible;"></use> </clipPath> <g class="st0"> <g> <g> <g> <g> <g> <g> <path class="st1" d="M174.18,90.63h1.78v-0.47V79.84h-1.78v0.61h-10.69v-0.61h-1.78v10.31v0.47h1.78v-0.47v-0.19h10.69v0.19 V90.63z M165.42,88.18h-0.81v-5.91h0.81V88.18z M167.96,88.18h-0.81v-5.91h0.81V88.18z M170.52,88.18h-0.81v-5.91h0.81 V88.18z M173.06,88.18h-0.81v-5.91h0.81V88.18z"></path> <path class="st1" d="M174.18,79.13h1.78v-0.47V68.35h-1.78v0.61h-10.69v-0.61h-1.78v10.31v0.47h1.78v-0.47v-0.19h10.69v0.19 V79.13z M165.42,76.7h-0.81v-5.91h0.81V76.7z M167.96,76.7h-0.81v-5.91h0.81V76.7z M170.52,76.7h-0.81v-5.91h0.81V76.7z M173.06,76.7h-0.81v-5.91h0.81V76.7z"></path> <path class="st1" d="M191.42,90.63h1.78v-0.47V79.84h-1.78v0.61h-10.69v-0.61h-1.78v10.31v0.47h1.78v-0.47v-0.19h10.69v0.19 V90.63z M182.66,88.18h-0.81v-5.91h0.81V88.18z M185.2,88.18h-0.81v-5.91h0.81V88.18z M187.75,88.18h-0.81v-5.91h0.81V88.18 z M190.3,88.18h-0.81v-5.91h0.81V88.18z"></path> <path class="st1" d="M191.42,79.13h1.78v-0.47V68.35h-1.78v0.61h-10.69v-0.61h-1.78v10.31v0.47h1.78v-0.47v-0.19h10.69v0.19 V79.13z M182.66,76.7h-0.81v-5.91h0.81V76.7z M185.2,76.7h-0.81v-5.91h0.81V76.7z M187.75,76.7h-0.81v-5.91h0.81V76.7z M190.3,76.7h-0.81v-5.91h0.81V76.7z"></path> <path class="st1" d="M207.51,90.63h1.78v-0.47V79.84h-1.78v0.61h-10.69v-0.61h-1.78v10.31v0.47h1.78v-0.47v-0.19h10.69v0.19 V90.63z M198.74,88.18h-0.81v-5.91h0.81V88.18z M201.29,88.18h-0.81v-5.91h0.81V88.18z M203.84,88.18h-0.81v-5.91h0.81 V88.18z M206.38,88.18h-0.81v-5.91h0.81V88.18z"></path> <g> <g> <path class="st2" d="M219.19,90.85c-1.56,0-2.81-1.27-2.81-2.81c0-1.55,1.27-2.81,2.81-2.81c1.56,0,2.81,1.27,2.81,2.81 C222.02,89.58,220.75,90.85,219.19,90.85L219.19,90.85z"></path> <path class="st2" d="M219.19,90.85c-1.56,0-2.81-1.27-2.81-2.81c0-1.55,1.27-2.81,2.81-2.81c1.56,0,2.81,1.27,2.81,2.81 C222.02,89.58,220.75,90.85,219.19,90.85L219.19,90.85z"></path> <path class="st2" d="M219.19,89.5c-0.81,0-1.47-0.66-1.47-1.47s0.66-1.47,1.47-1.47s1.47,0.66,1.47,1.47 S220,89.5,219.19,89.5L219.19,89.5z"></path> <path class="st2" d="M219.19,88.82c-0.44,0-0.79-0.35-0.79-0.79c0-0.44,0.35-0.79,0.79-0.79s0.79,0.35,0.79,0.79 C219.99,88.46,219.63,88.82,219.19,88.82L219.19,88.82z"></path> </g> <g> <path class="st2" d="M232.65,90.85c-1.56,0-2.81-1.27-2.81-2.81c0-1.55,1.27-2.81,2.81-2.81c1.56,0,2.81,1.27,2.81,2.81 S234.21,90.85,232.65,90.85L232.65,90.85z"></path> <g> <path class="st2" d="M235.87,81.43h-8.62v-3.9c0-0.56-0.45-1.01-1.01-1.01h-3.04h-0.02c-0.01,0-0.02,0-0.02,0 c-2.26,0-4.09,2.72-4.09,6.07v1.96h0.12c1.76,0,3.22,1.31,3.46,3.01h6.55c0.24-1.7,1.7-3.01,3.46-3.01 c1.75,0,3.2,1.29,3.45,2.98c0.45-0.11,0.78-0.5,0.78-0.98v-4.11C236.88,81.88,236.43,81.43,235.87,81.43z"></path> </g> <path class="st2" d="M232.65,90.85c-1.56,0-2.81-1.27-2.81-2.81c0-1.55,1.27-2.81,2.81-2.81c1.56,0,2.81,1.27,2.81,2.81 S234.21,90.85,232.65,90.85L232.65,90.85z"></path> <path class="st2" d="M232.65,89.5c-0.81,0-1.47-0.66-1.47-1.47s0.66-1.47,1.47-1.47c0.81,0,1.47,0.66,1.47,1.47 S233.46,89.5,232.65,89.5L232.65,89.5z"></path> <path class="st2" d="M232.65,88.82c-0.44,0-0.79-0.35-0.79-0.79c0-0.44,0.35-0.79,0.79-0.79c0.44,0,0.79,0.35,0.79,0.79 C233.45,88.46,233.09,88.82,232.65,88.82L232.65,88.82z"></path> </g> <g> <rect x="217.44" y="49.78" class="st2" width="1.64" height="34.77"></rect> </g> <polygon class="st2" points="215.12,46.58 216.14,47.6 216.14,66.5 215.12,66.5 "></polygon> <polygon class="st2" points="190.21,63.28 215.12,63.28 215.12,66.5 190.21,63.95 "></polygon> <rect x="216.14" y="50.29" class="st2" width="1.3" height="1.2"></rect> <rect x="216.14" y="63.28" class="st2" width="1.3" height="1.2"></rect> </g> <g> <rect x="282.4" y="72.08" class="st2" width="8.73" height="17.81"></rect> <rect x="285.55" y="68.93" class="st2" width="4.44" height="2.17"></rect> <g class="st3"> <rect x="279.49" y="73.24" class="st4" width="13.59" height="5.3"></rect> <g> <polygon class="st1" points="268.42,73.96 266.32,73.96 263.97,77.98 266.08,77.98 "></polygon> <polygon class="st1" points="272.3,73.96 270.2,73.96 267.85,77.98 269.96,77.98 "></polygon> <polygon class="st1" points="260.67,73.96 258.56,73.96 256.22,77.98 258.33,77.98 "></polygon> <polygon class="st1" points="276.18,73.96 274.07,73.96 271.74,77.98 273.83,77.98 "></polygon> <polygon class="st1" points="252.34,77.98 254.45,77.98 256.79,73.96 254.69,73.96 "></polygon> <polygon class="st1" points="264.55,73.96 262.44,73.96 260.1,77.98 262.2,77.98 "></polygon> <polygon class="st1" points="291.69,73.96 289.58,73.96 287.25,77.98 289.34,77.98 "></polygon> <polygon class="st1" points="252.92,73.96 248.9,73.96 248.9,77.98 250.57,77.98 "></polygon> <polygon class="st1" points="293.46,73.96 291.12,77.98 298.1,77.98 298.1,73.96 "></polygon> <polygon class="st1" points="283.93,73.96 281.83,73.96 279.49,77.98 281.59,77.98 "></polygon> <polygon class="st1" points="280.06,73.96 277.95,73.96 275.62,77.98 277.71,77.98 "></polygon> <polygon class="st1" points="287.81,73.96 285.7,73.96 283.37,77.98 285.47,77.98 "></polygon> </g> <circle class="st2" cx="260.1" cy="75.97" r="4.03"></circle> </g> </g> <g> <path class="st4" d="M222.08,82.47h-2.17v-0.25c0-2.58,1.35-4.85,2.88-4.86h1.3C223.98,80.31,222.99,82.47,222.08,82.47 L222.08,82.47z"></path> </g> <path class="st1" d="M210.24,61.93h1.78v-0.47v-10.3h-1.78v0.61h-10.69v-0.61h-1.78v10.31v0.47h1.78v-0.47v-0.19h10.69v0.19 V61.93z M201.48,59.49h-0.81v-5.91h0.81V59.49z M204.02,59.49h-0.81v-5.91h0.81V59.49z M206.57,59.49h-0.81v-5.91h0.81 V59.49z M209.12,59.49h-0.81v-5.91h0.81V59.49z"></path> <g> <polygon class="st5" points="497.52,56.66 435.58,56.66 438.5,47.91 466.69,39.84 494.61,47.92 "></polygon> <g> <rect x="454.44" y="87.01" class="st5" width="24.13" height="2.33"></rect> <rect x="474.68" y="89.34" class="st5" width="3.9" height="1.55"></rect> <rect x="454.44" y="89.34" class="st5" width="3.9" height="1.55"></rect> <rect x="464.55" y="89.34" class="st5" width="3.9" height="1.55"></rect> </g> <rect x="454.44" y="81.3" class="st6" width="8.82" height="5.71"></rect> <rect x="463.26" y="81.3" class="st6" width="9.08" height="5.71"></rect> <rect x="472.34" y="81.3" class="st6" width="6.23" height="5.71"></rect> <rect x="469.75" y="75.33" class="st6" width="8.82" height="5.96"></rect> <rect x="460.92" y="75.33" class="st6" width="8.82" height="5.96"></rect> <rect x="454.44" y="75.33" class="st6" width="6.49" height="5.96"></rect> <rect x="454.44" y="69.62" class="st6" width="8.82" height="5.71"></rect> <rect x="463.26" y="69.62" class="st6" width="9.08" height="5.71"></rect> <rect x="472.34" y="69.62" class="st6" width="6.23" height="5.71"></rect> <rect x="455.48" y="70.66" class="st6" width="3.37" height="2.33"></rect> <rect x="465.33" y="76.37" class="st6" width="3.37" height="2.33"></rect> <rect x="455.48" y="82.34" class="st6" width="3.37" height="2.33"></rect> <rect x="474.15" y="82.34" class="st6" width="3.37" height="2.33"></rect> <path class="st7" d="M437.56,57.43v33.21h11.94V66.25h34.02l-0.09,24.39h12.25V57.43H437.56z M447.43,78.97h-7.78v-5.71 h7.78V78.97z"></path> <line class="st8" x1="483.37" y1="88.3" x2="478.7" y2="88.3"></line> <line class="st8" x1="454.31" y1="88.3" x2="449.9" y2="88.3"></line> <rect x="449.5" y="66.25" class="st9" width="33.99" height="1.55"></rect> </g> <path d="M-129.81,91.37c-0.01,0.03-0.02,0.06-0.03,0.09c-0.26,1.04-1.19,1.78-2.26,1.78h-8.01h-8.01 c-1.08,0-2.01-0.73-2.26-1.78c-0.01-0.03-0.02-0.06-0.02-0.09h10.3H-129.81z"></path> <g> <path class="st10" d="M-110.94,49.02v-1.95h9.37c-0.94-0.87-2.37-1.41-4.07-1.41h-8.45v-0.8v-1.93h-3.9v1.93v0.8h-0.3 c-1.25,0-2.47,0.54-3.31,1.41h9.2v1.95h-10.3c-0.03,0.12-0.05,0.44-0.06,0.73c-1.9,0.05-3.39,0.55-3.39,1.17v3.57h28.97 v-3.57c0-0.59-1.37-1.08-3.17-1.16c-0.01-0.31-0.03-0.62-0.06-0.74C-100.4,49.02-110.94,49.02-110.94,49.02z M-103.08,51.42c0-0.38,0.65-0.69,1.45-0.69s1.45,0.31,1.45,0.69v1.14c0,0.38-0.65,0.69-1.45,0.69s-1.45-0.31-1.45-0.69 V51.42z M-108.1,51.42c0-0.38,0.65-0.69,1.45-0.69s1.45,0.31,1.45,0.69v1.14c0,0.38-0.65,0.69-1.45,0.69 s-1.45-0.31-1.45-0.69V51.42z M-113.12,51.42c0-0.38,0.65-0.69,1.45-0.69s1.45,0.31,1.45,0.69v1.14 c0,0.38-0.65,0.69-1.45,0.69s-1.45-0.31-1.45-0.69V51.42z M-118.14,51.42c0-0.38,0.65-0.69,1.45-0.69s1.45,0.31,1.45,0.69 v1.14c0,0.38-0.65,0.69-1.45,0.69s-1.45-0.31-1.45-0.69V51.42z M-121.71,50.73c0.8,0,1.45,0.31,1.45,0.69v1.14 c0,0.38-0.65,0.69-1.45,0.69s-1.45-0.31-1.45-0.69v-1.14C-123.16,51.04-122.51,50.73-121.71,50.73z"></path> <path class="st11" d="M-90.2,74.19l-9.52-2.18v-4.43c0-0.81,0.65-1.46,1.46-1.46h6.59c0.33,0,0.61,0.13,0.85,0.31 c0.37,0.27,0.61,0.67,0.61,1.16L-90.2,74.19C-90.21,74.19-90.2,74.19-90.2,74.19z"></path> <path class="st11" d="M-109.15,66.11h6.59c0.81,0,1.46,0.65,1.46,1.46v4.12l-9.52-2.19v-1.94 C-110.61,66.77-109.95,66.11-109.15,66.11z"></path> <path class="st11" d="M-120.03,66.11h6.59c0.81,0,1.46,0.65,1.46,1.46v1.94l-9.52,2.16v-4.09 C-121.5,66.77-120.84,66.11-120.03,66.11z"></path> <path class="st11" d="M-131.77,66.42c0.25-0.18,0.52-0.31,0.85-0.31h6.59c0.81,0,1.46,0.65,1.46,1.46v4.4l-9.52,2.16v-6.57 C-132.38,67.1-132.13,66.68-131.77,66.42z"></path> <path class="st11" d="M-90.2,56.42v6.96c0,0.48-0.25,0.89-0.61,1.16c-0.25,0.18-0.52,0.31-0.85,0.31h-6.59 c-0.81,0-1.46-0.65-1.46-1.46v-6.96c0-0.12,0.04-0.23,0.07-0.34c0.16-0.64,0.71-1.13,1.39-1.13h6.59 C-90.86,54.95-90.2,55.61-90.2,56.42z"></path> <path class="st11" d="M-110.61,56.42c0-0.12,0.04-0.23,0.07-0.34c0.16-0.64,0.71-1.13,1.39-1.13h6.59 c0.69,0,1.25,0.48,1.39,1.13c0.03,0.11,0.07,0.22,0.07,0.34v6.96c0,0.81-0.65,1.46-1.46,1.46h-6.59 c-0.81,0-1.46-0.65-1.46-1.46L-110.61,56.42L-110.61,56.42z"></path> <path class="st11" d="M-121.5,56.42c0-0.12,0.04-0.23,0.07-0.34c0.16-0.64,0.71-1.13,1.39-1.13h6.59 c0.69,0,1.25,0.48,1.39,1.13c0.03,0.11,0.07,0.22,0.07,0.34v6.96c0,0.81-0.65,1.46-1.46,1.46h-6.59 c-0.81,0-1.46-0.65-1.46-1.46L-121.5,56.42L-121.5,56.42z"></path> <path class="st11" d="M-132.38,56.42c0-0.81,0.65-1.46,1.46-1.46h6.59c0.69,0,1.25,0.48,1.39,1.13 c0.03,0.11,0.07,0.22,0.07,0.34v6.96c0,0.81-0.65,1.46-1.46,1.46h-6.59c-0.33,0-0.61-0.13-0.85-0.31 c-0.37-0.27-0.61-0.67-0.61-1.16L-132.38,56.42L-132.38,56.42z"></path> <rect x="-118" y="39.07" width="3.9" height="1.93"></rect> <path class="st10" d="M-111.42,70.7l-21.76,5c0,0,3.73,6.82,6.1,12.09c0.2,0.44,0.38,0.89,0.54,1.36 c0.16,0.44,0.31,0.89,0.45,1.36h14.66h14.66c0.15-0.47,0.3-0.93,0.45-1.37c0.17-0.47,0.35-0.93,0.54-1.36 c2.44-5.42,6.1-12.09,6.1-12.09l-21.21-4.88L-111.42,70.7z M-107.72,76.07c-0.36-0.08-0.74-0.14-1.19-0.17 c-0.29-0.02-0.54,0.2-0.56,0.49c-0.02,0.3,0.2,0.54,0.49,0.56c0.46,0.03,0.84,0.1,1.19,0.19 c-0.21,0.56-0.64,0.96-1.15,0.96c-0.71,0-1.29-0.75-1.29-1.67s0.57-1.67,1.29-1.67 C-108.35,74.75-107.85,75.33-107.72,76.07z M-110.64,85.3l1.76-2.1c0.03-0.04,0.1-0.02,0.11,0.03 c0.05,0.42,0.14,0.9,0.31,1.43c0.1,0.33,0.28,0.82,0.42,1.14c0.02,0.05-0.03,0.1-0.08,0.09c-0.07-0.02-0.17-0.05-0.27-0.08 l0,0c-0.15-0.04-0.32-0.08-0.5-0.12c0.01,0.09,0.04,0.19,0.09,0.29c0.11,0.23,0.34,0.45,0.76,0.63 c0.31,0.14,1.61,0.32,1.74-0.47c0.21-1.32,0.21-2.96,0.11-4.2c-0.07-0.9-0.86-1.65-1.76-1.68h-0.12l0.02-0.74l1.14,0.03 c0.37,0.01,0.66-0.28,0.67-0.64l0.01-0.19c-0.25-0.22-0.42-0.54-0.41-0.9c0-0.08,0.03-0.14,0.05-0.22 c0.22,0.13,0.38,0.25,0.48,0.34c0.05,0.31,0.3,0.54,0.61,0.55h0.01c0.36,0,0.65-0.28,0.66-0.63 c0.01-0.31-0.2-0.55-0.47-0.63c-0.14-0.14-0.33-0.3-0.59-0.46c0.14-0.06,0.3-0.08,0.45-0.08h0.01 c0.63,0.02,1.14,0.55,1.12,1.19c-0.01,0.36-0.19,0.67-0.45,0.88l-0.01,0.19c-0.01,0.37,0.28,0.66,0.64,0.67l1.14,0.03 l-0.02,0.74h-0.12c-0.9-0.02-1.73,0.68-1.84,1.58c-0.16,1.25-0.26,2.89-0.11,4.2c0.09,0.8,1.39,0.69,1.71,0.57 c0.43-0.16,0.67-0.37,0.79-0.58c0.06-0.1,0.09-0.2,0.11-0.29c-0.03,0-0.06,0.01-0.08,0.01c-0.03,0.01-0.06,0.01-0.09,0.02 c-0.02,0-0.04,0.01-0.06,0.01c-0.23,0.04-0.42,0.08-0.54,0.12c-0.05,0.01-0.1-0.04-0.08-0.09 c0.15-0.31,0.36-0.79,0.47-1.12c0.19-0.51,0.31-1,0.38-1.41c0.01-0.05,0.08-0.07,0.11-0.03l1.65,2.2 c0.03,0.04,0,0.11-0.05,0.11c-0.17,0-0.45,0.02-0.75,0.06c-0.02,0-0.05,0.01-0.07,0.01c0,0.08,0.01,0.16,0,0.24 c-0.01,0.49-0.15,0.98-0.48,1.37c-0.16,0.19-0.35,0.34-0.54,0.45c-0.52,0.33-1.13,0.46-1.69,0.76 c-0.51,0.28-1.04,0.7-1.48,1.08c-0.43-0.4-0.93-0.86-1.42-1.16c-0.45-0.27-0.93-0.45-1.36-0.68 c-0.3-0.17-0.57-0.36-0.8-0.64c-0.33-0.43-0.43-0.91-0.42-1.41c0-0.07,0.01-0.15,0.02-0.23c-0.01,0-0.02,0-0.04-0.01 c-0.32-0.06-0.6-0.1-0.78-0.1C-110.65,85.41-110.68,85.34-110.64,85.3z M-113.49,76.43c0,0.92-0.57,1.67-1.29,1.67 c-0.71,0-1.29-0.75-1.29-1.67c0-0.92,0.57-1.67,1.29-1.67C-114.06,74.75-113.49,75.51-113.49,76.43z"></path> </g> <path class="st10" d="M-103.62,32.32v1.64h29.55v2.58c-0.05,0.16-0.08,0.34-0.08,0.52v0.25V43c0,0.66,0.32,1.2,0.71,1.2 h9.14c0.4,0,0.71-0.53,0.71-1.2v-5.68v-0.25c0-0.41-0.13-0.75-0.32-0.97v-2.14h10.81v39.28v1.74v12.58h-1.8v2.76h6.27v-2.76 h-1.26V73.23h18.25v14.33h-1.48v2.76h6.27v-2.76h-1.56v-53.6h15.3v-1.64l-7.04-7.78h-8.26v-7.39h-0.03L-49.92,1.44 C-50.09,0.61-50.72,0-51.49,0c-0.83,0-1.5,0.74-1.59,1.7l-33.97,22.86h-9.38L-103.62,32.32z M-26.2,32.32l5.54-6.09 l-0.05-0.06h0.1l-0.05,0.06l5.54,6.09H-26.2z M-28.4,32.32v-6.15h6.18l-5.59,6.15H-28.4z M-31.61,20.01h-18.25V5.22 l18.25,14.04V20.01z M-31.61,22.36h-18.25v-0.95h18.25V22.36z M-31.61,24.54h-18.25v-0.78h18.25V24.54z M-45.28,32.32h-4.58 v-5.03L-45.28,32.32z M-49.28,26.18h12l-5.59,6.15h-0.81L-49.28,26.18z M-31.61,29.03l-2.59-2.85h2.59V29.03z M-31.61,32.32 h-9.67l5.54-6.09l-0.05-0.06h0.11l-0.05,0.06l4.13,4.55L-31.61,32.32L-31.61,32.32z M-31.61,38.67h-18.25v-4.71h18.25V38.67 z M-49.47,40.56l15.08,12.68h-15.47V40.56H-49.47z M-31.61,53.24L-31.61,53.24l-15.09-12.68h15.09V53.24z M-31.61,69.02 l-16.51-13.89h16.51V69.02z M-49.86,69.45V55.99l16,13.46H-49.86z M-61.67,8.6L-81.5,24.54h-3.86L-61.67,8.6z M-53.08,24.54 H-80l26.92-21.62V24.54z M-56.36,32.32l3.28-3.61v3.61H-56.36z M-58.76,32.32l-5.59-6.15h11.28v0.79l-4.88,5.36H-58.76z M-71.43,32.32l5.54-6.09l-0.05-0.06h0.11l-0.05,0.06l5.54,6.09H-71.43z M-72.67,35.87v-1.91h7.38v1.91H-72.67z M-79.44,26.18h12l-5.59,6.15h-0.81L-79.44,26.18z M-86.51,32.32l5.54-6.09l-0.05-0.06h0.11l-0.05,0.06l5.54,6.09H-86.51z M-88.92,32.32l-5.59-6.15h12l-5.59,6.15H-88.92z M-101.58,32.32l5.54-6.09l-0.05-0.06h0.11l-0.05,0.06l5.54,6.09H-101.58z"></path> <path class="st2" d="M302.15,95.33h-360.4c-1.23,0-2.23-1.09-2.23-2.43c0-1.35,1-2.43,2.23-2.43h360.4 c1.23,0,2.23,1.09,2.23,2.43C304.38,94.23,303.37,95.33,302.15,95.33z"></path> <line class="st12" x1="858.25" y1="91.91" x2="896.37" y2="91.91"></line> <path class="st12" d="M858.25,91.91"></path> <path class="st12" d="M711.5,91.91"></path> <line class="st12" x1="300" y1="91.91" x2="711.5" y2="91.91"></line> <rect x="-300" y="91.15" class="st11" width="241.8" height="2.69"></rect> <g> <path class="st10" d="M-278.22,60.04v-0.03v11.31h-2.67v3.31h2.67h2.34h2h2.73h6.26l2.88,5.52h2.56h2.97h5.87l-5.87-5.87 V60.01v0.02h-1.81l-0.52-1.37h-9.98l-0.52,1.37h-1.81v-0.02h-2.73v0.03C-273.86,60.04-278.22,60.04-278.22,60.04z M-260.98,62.5h2.96v1.71h-2.96V62.5z M-266.21,62.5h4.58v1.71h-4.58V62.5z M-269.64,62.5h2.77v1.71h-2.77V62.5z"></path> <path class="st11" d="M-234.1,79.95h1.9v-0.5v-11h-1.9v0.64h-11.39v-0.64h-1.9v11v0.5h1.9v-0.5v-0.2h11.39v0.2 C-234.1,79.44-234.1,79.95-234.1,79.95z M-243.43,77.35h-0.86v-6.29h0.86V77.35z M-240.72,77.35h-0.86v-6.29h0.86V77.35z M-238,77.35h-0.86v-6.29h0.86V77.35z M-235.29,77.35h-0.86v-6.29h0.86V77.35z"></path> <path class="st11" d="M-218.02,79.95h1.9v-0.5v-11h-1.9v0.64h-11.39v-0.64h-1.9v11v0.5h1.9v-0.5v-0.2h11.39v0.2V79.95z M-227.35,77.35h-0.86v-6.29h0.86V77.35z M-224.64,77.35h-0.86v-6.29h0.86V77.35z M-221.92,77.35h-0.86v-6.29h0.86V77.35z M-219.21,77.35h-0.86v-6.29h0.86V77.35z"></path> <path class="st11" d="M-201.93,79.95h1.9v-0.5v-11h-1.9v0.64h-11.39v-0.64h-1.9v11v0.5h1.9v-0.5v-0.2h11.39v0.2 C-201.93,79.44-201.93,79.95-201.93,79.95z M-211.27,77.35h-0.86v-6.29h0.86V77.35z M-208.55,77.35h-0.86v-6.29h0.86V77.35 z M-205.84,77.35h-0.86v-6.29h0.86V77.35z M-203.13,77.35h-0.86v-6.29h0.86V77.35z"></path> <path class="st11" d="M-185.41,79.95h1.9v-0.5v-11h-1.9v0.64h-11.39v-0.64h-1.9v11v0.5h1.9v-0.5v-0.2h11.39v0.2V79.95z M-194.74,77.35h-0.86v-6.29h0.86V77.35z M-192.03,77.35h-0.86v-6.29h0.86V77.35z M-189.31,77.35h-0.86v-6.29h0.86V77.35z M-186.6,77.35h-0.86v-6.29h0.86V77.35z"></path> <path class="st11" d="M-234.1,67.54h1.9v-0.5v-11h-1.9v0.64h-11.39v-0.64h-1.9v11v0.5h1.9v-0.5v-0.2h11.39v0.2 C-234.1,67.04-234.1,67.54-234.1,67.54z M-243.43,64.94h-0.86v-6.3h0.86V64.94z M-240.72,64.94h-0.86v-6.3h0.86V64.94z M-238,64.94h-0.86v-6.3h0.86V64.94z M-235.29,64.94h-0.86v-6.3h0.86V64.94z"></path> <path class="st11" d="M-218.02,67.54h1.9v-0.5v-11h-1.9v0.64h-11.39v-0.64h-1.9v11v0.5h1.9v-0.5v-0.2h11.39v0.2V67.54z M-227.35,64.94h-0.86v-6.3h0.86V64.94z M-224.64,64.94h-0.86v-6.3h0.86V64.94z M-221.92,64.94h-0.86v-6.3h0.86V64.94z M-219.21,64.94h-0.86v-6.3h0.86V64.94z"></path> <path class="st11" d="M-201.93,67.54h1.9v-0.5v-11h-1.9v0.64h-11.39v-0.64h-1.9v11v0.5h1.9v-0.5v-0.2h11.39v0.2 C-201.93,67.04-201.93,67.54-201.93,67.54z M-211.27,64.94h-0.86v-6.3h0.86V64.94z M-208.55,64.94h-0.86v-6.3h0.86V64.94z M-205.84,64.94h-0.86v-6.3h0.86V64.94z M-203.13,64.94h-0.86v-6.3h0.86V64.94z"></path> <path class="st11" d="M-185.41,67.54h1.9v-0.5v-11h-1.9v0.64h-11.39v-0.64h-1.9v11v0.5h1.9v-0.5v-0.2h11.39v0.2V67.54z M-194.74,64.94h-0.86v-6.3h0.86V64.94z M-192.03,64.94h-0.86v-6.3h0.86V64.94z M-189.31,64.94h-0.86v-6.3h0.86V64.94z M-186.6,64.94h-0.86v-6.3h0.86V64.94z"></path> <path class="st10" d="M-286.31,89.48c3.01,1,4.71,3.27,5.14,3.93c0.06-0.02,0.13-0.04,0.18-0.07 c2.34-0.93,3.89-2.46,4.06-3.17l0.24-1.01l0.98,0.33c3.01,1,4.7,3.27,5.14,3.93c0.06-0.02,0.13-0.04,0.18-0.07 c2.34-0.93,3.89-2.46,4.06-3.17l0.24-1.01l0.98,0.33c3.01,1,4.71,3.27,5.14,3.93c0.06-0.02,0.13-0.04,0.18-0.07 c2.34-0.93,3.89-2.46,4.06-3.17l0.24-1.01l0.98,0.33c3.01,1,4.71,3.27,5.14,3.93c0.06-0.02,0.13-0.04,0.18-0.07 c2.34-0.93,3.89-2.46,4.06-3.17l0.24-1.01l0.98,0.33c3.01,1,4.71,3.27,5.14,3.93c0.06-0.02,0.13-0.04,0.18-0.07 c2.34-0.93,3.89-2.46,4.06-3.17l0.24-1.01l0.98,0.33c3.01,1,4.71,3.27,5.14,3.93c0.06-0.02,0.13-0.04,0.18-0.07 c2.34-0.93,3.89-2.46,4.06-3.17l0.24-1.01l0.98,0.33c3.01,1,4.71,3.27,5.14,3.93c0.06-0.02,0.13-0.04,0.18-0.07 c2.34-0.93,3.89-2.46,4.06-3.17l0.24-1.01l0.98,0.33c3.01,1,4.71,3.27,5.14,3.93c0.06-0.02,0.13-0.04,0.18-0.07 c2.34-0.93,3.89-2.46,4.06-3.17l0.24-1.01l0.98,0.33c3.01,1,4.71,3.27,5.14,3.93c0.06-0.02,0.13-0.04,0.18-0.07 c2.34-0.93,3.89-2.46,4.06-3.17l0.24-1.01l0.98,0.33c3.01,1,4.71,3.27,5.14,3.93c0.06-0.02,0.13-0.04,0.18-0.07 c2.34-0.93,3.89-2.46,4.06-3.17l0.24-1.01l0.98,0.33c3.01,1,4.71,3.27,5.14,3.93c0.06-0.02,0.13-0.04,0.18-0.07 c1.13-0.45,2.07-1.03,2.76-1.6c-0.29-0.41-0.64-0.76-1.06-1.04c-0.11-0.08-0.23-0.15-0.36-0.21l3.73-11.17h-13.74 l-2.92,2.88h-58.25h-9.88h-0.18h-8.69l-1.65-3.18l-1.62-3.13h-4.58h-3.12h-4.96h-9.34h-2.56v3.43l5,10.1L-286.31,89.48z"></path> </g> <g> <path class="st1" d="M16.74,83.87h1.65v-0.44v-9.54h-1.65v0.56H6.86v-0.56H5.2v9.54v0.44h1.65v-0.44v-0.18h9.89v0.18V83.87 z M8.63,81.61H7.88v-5.47h0.75V81.61z M10.98,81.61h-0.75v-5.47h0.75V81.61z M13.35,81.61H12.6v-5.47h0.75V81.61z M15.7,81.61h-0.75v-5.47h0.75V81.61z"></path> <path class="st1" d="M33.95,83.87h1.65v-0.44v-9.54h-1.65v0.56h-9.89v-0.56h-1.65v9.54v0.44h1.65v-0.44v-0.18h9.89v0.18 V83.87z M25.84,81.61h-0.75v-5.47h0.75V81.61z M28.2,81.61h-0.75v-5.47h0.75V81.61z M30.55,81.61H29.8v-5.47h0.75V81.61z M32.91,81.61h-0.75v-5.47h0.75V81.61z"></path> <g> <rect x="2.68" y="84.37" class="st2" width="39.46" height="2.26"></rect> <rect x="1.28" y="84.89" class="st2" width="1.4" height="1.21"></rect> <g> <path class="st2" d="M1.28,84.37H0.97c-0.17,0.25-0.28,0.66-0.28,1.13s0.11,0.88,0.28,1.13h0.31V84.37z"></path> </g> <rect x="42.14" y="84.89" class="st2" width="1.4" height="1.21"></rect> <g> <path class="st2" d="M43.54,84.37h0.31c0.17,0.25,0.28,0.66,0.28,1.13s-0.11,0.88-0.28,1.13h-0.31V84.37z"></path> </g> </g> <g> <circle class="st2" cx="6" cy="88.85" r="1.66"></circle> <circle class="st2" cx="11.79" cy="88.85" r="1.66"></circle> <g> <path class="st2" d="M8.11,88.85h1.57l0,0c0-0.3,0.07-0.58,0.18-0.83H7.93C8.04,88.27,8.11,88.55,8.11,88.85z"></path> </g> <circle class="st2" cx="33.03" cy="88.85" r="1.66"></circle> <circle class="st2" cx="38.82" cy="88.85" r="1.66"></circle> <g> <path class="st2" d="M35.14,88.85h1.57l0,0c0-0.3,0.07-0.58,0.18-0.83h-1.92C35.07,88.27,35.14,88.55,35.14,88.85z"></path> </g> </g> </g> <g> <path class="st1" d="M114.17,68.79h1.82V68.3V57.75h-1.82v0.62h-10.94v-0.62h-1.82V68.3v0.49h1.82V68.3v-0.19h10.94v0.2 V68.79z M105.2,66.3h-0.83v-6.05h0.83V66.3z M107.8,66.3h-0.83v-6.05h0.83V66.3z M110.41,66.3h-0.83v-6.05h0.83V66.3z M113.02,66.3h-0.83v-6.05h0.83V66.3z"></path> <path class="st1" d="M92.5,82.95h1.82v-0.49V71.9H92.5v0.62H81.56V71.9h-1.82v10.56v0.49h1.82v-0.49v-0.2H92.5v0.2V82.95z M83.54,80.45h-0.83v-6.05h0.83V80.45z M86.15,80.45h-0.83v-6.05h0.83V80.45z M88.75,80.45h-0.83v-6.05h0.83V80.45z M91.36,80.45h-0.83v-6.05h0.83V80.45z"></path> <g> <rect x="76.95" y="83.51" class="st2" width="43.66" height="2.5"></rect> <rect x="120.61" y="84.09" class="st2" width="1.55" height="1.34"></rect> <g> <path class="st2" d="M122.16,83.51h0.35c0.19,0.28,0.31,0.74,0.31,1.25c0,0.51-0.12,0.97-0.31,1.25h-0.35V83.51z"></path> </g> <rect x="75.39" y="84.09" class="st2" width="1.55" height="1.34"></rect> <g> <path class="st2" d="M75.39,83.51h-0.35c-0.19,0.28-0.31,0.74-0.31,1.25c0,0.51,0.12,0.97,0.31,1.25h0.35V83.51z"></path> </g> </g> <g> <circle class="st2" cx="112.5" cy="88.85" r="1.6"></circle> <circle class="st2" cx="106.93" cy="88.85" r="1.6"></circle> <g> <path class="st2" d="M110.47,88.85h-1.51l0,0c0-0.28-0.07-0.55-0.17-0.79h1.85C110.53,88.3,110.47,88.56,110.47,88.85z"></path> </g> <circle class="st2" cx="86.49" cy="88.85" r="1.6"></circle> <circle class="st2" cx="80.91" cy="88.85" r="1.6"></circle> <g> <path class="st2" d="M84.45,88.85h-1.51l0,0c0-0.28-0.07-0.55-0.17-0.79h1.85C84.52,88.3,84.45,88.56,84.45,88.85z"></path> </g> </g> <g> <polygon class="st1" points="108.6,52.33 115.9,57.74 116.88,57.74 108.6,51.45 100.33,57.74 101.31,57.74 "></polygon> </g> <g> <g> <path class="st2" d="M55.7,91.2l5.34-52.34h10.2L56.89,91.42L55.7,91.2L55.7,91.2z M57.66,83.98l11.98-43.9h-7.5 L57.66,83.98L57.66,83.98z"></path> </g> <g> <path class="st2" d="M60.4,75.07l-2.58-2.58c-0.24-0.23-0.24-0.63,0-0.86l0,0l4.08-4.08l-3.25-3.25 c-0.23-0.23-0.23-0.63,0-0.86l0,0l6.01-6.01l-4.81-4.81c-0.13-0.13-0.2-0.31-0.18-0.49l0,0 c0.02-0.18,0.11-0.35,0.26-0.45l0,0l7.65-5.34l-6.44-6.44l0,0c-0.23-0.23-0.24-0.63,0-0.86l0,0 c0.23-0.23,0.63-0.23,0.86,0l0,0l6.95,6.95c0.13,0.13,0.2,0.31,0.18,0.49l0,0c-0.02,0.18-0.11,0.35-0.26,0.45l0,0 l-7.65,5.34L65.95,57c0.11,0.11,0.18,0.27,0.18,0.43l0,0c0,0.16-0.07,0.32-0.18,0.43l0,0l-6.01,6.01l3.24,3.25 c0.11,0.11,0.18,0.27,0.18,0.43l0,0c0,0.16-0.07,0.32-0.18,0.43l0,0l-4.08,4.08l2.15,2.15c0.24,0.23,0.24,0.63,0,0.86 l0,0c-0.12,0.12-0.27,0.18-0.43,0.18l0,0C60.68,75.25,60.53,75.18,60.4,75.07L60.4,75.07z"></path> </g> <g> <path class="st2" d="M143.59,91.2l-1.2,0.22l-14.34-52.57h10.19L143.59,91.2L143.59,91.2z M141.63,83.98l-4.48-43.9h-7.5 L141.63,83.98L141.63,83.98z"></path> </g> <g> <path class="st2" d="M138.88,75.07l2.58-2.58c0.24-0.23,0.24-0.63,0-0.86l0,0l-4.08-4.08l3.25-3.25 c0.24-0.23,0.24-0.63,0-0.86l0,0l-6.01-6.01l4.81-4.81c0.13-0.13,0.2-0.31,0.18-0.49l0,0c-0.02-0.18-0.11-0.35-0.26-0.45 l0,0l-7.65-5.34l6.44-6.44l0,0c0.24-0.23,0.24-0.63,0-0.86l0,0c-0.23-0.23-0.63-0.23-0.86,0l0,0l-6.95,6.95 c-0.13,0.13-0.2,0.31-0.18,0.49l0,0c0.02,0.18,0.11,0.35,0.26,0.45l0,0l7.65,5.34L133.32,57 c-0.11,0.11-0.18,0.27-0.18,0.43l0,0c0,0.16,0.07,0.32,0.18,0.43l0,0l6.01,6.01l-3.25,3.25 c-0.11,0.11-0.18,0.27-0.18,0.43l0,0c0,0.16,0.07,0.32,0.18,0.43l0,0l4.08,4.08l-2.15,2.15c-0.23,0.23-0.23,0.63,0,0.86 l0,0c0.12,0.12,0.27,0.18,0.43,0.18l0,0C138.6,75.25,138.76,75.18,138.88,75.07L138.88,75.07z"></path> </g> </g> <g> <rect x="49.07" y="30.63" class="st2" width="101.14" height="9.45"></rect> <polygon class="st2" points="60.91,40.08 49.07,40.08 53.29,50.41 59.85,50.41 "></polygon> <rect x="102" y="37.58" class="st2" width="13.2" height="2.49"></rect> <rect x="103.15" y="37.58" class="st2" width="10.9" height="2.49"></rect> </g> <polygon class="st2" points="108.6,43.05 103.15,40.08 114.05,40.08 "></polygon> <rect x="106.81" y="41.05" class="st2" width="0.85" height="5.86"></rect> <rect x="108.18" y="47.63" class="st1" width="0.85" height="4.7"></rect> <rect x="109.53" y="41.05" class="st2" width="0.85" height="5.86"></rect> <circle class="st2" cx="108.6" cy="46.58" r="2.48"></circle> <g> <polygon class="st13" points="56.73,47.84 58.88,47.84 59.69,40.08 56.73,40.08 "></polygon> </g> <rect x="49.87" y="36.62" class="st4" width="99.54" height="0.96"></rect> </g> <path class="st14" d="M-196.52,94.02c0,0-1.13-1.88-3.38-2.63c-0.38,1.59-5.07,4.6-8.17,2.53"></path> <path class="st14" d="M-204.07,94.02c0,0-1.13-1.88-3.38-2.63c-0.38,1.59-5.07,4.6-8.17,2.53"></path> <path class="st14" d="M-211.62,94.02c0,0-1.13-1.88-3.38-2.63c-0.38,1.59-5.07,4.6-8.17,2.53"></path> <path class="st14" d="M-219.17,94.02c0,0-1.13-1.88-3.38-2.63c-0.38,1.59-5.07,4.6-8.17,2.53"></path> <path class="st14" d="M-226.72,94.02c0,0-1.13-1.88-3.38-2.63c-0.38,1.59-5.07,4.6-8.17,2.53"></path> <path class="st14" d="M-234.27,94.02c0,0-1.13-1.88-3.38-2.63c-0.38,1.59-5.07,4.6-8.17,2.53"></path> <path class="st14" d="M-241.82,94.02c0,0-1.13-1.88-3.38-2.63c-0.38,1.59-5.07,4.6-8.17,2.53"></path> <path class="st14" d="M-249.37,94.02c0,0-1.13-1.88-3.38-2.63c-0.38,1.59-5.07,4.6-8.17,2.53"></path> <path class="st14" d="M-256.92,94.02c0,0-1.13-1.88-3.38-2.63c-0.38,1.59-5.07,4.6-8.17,2.53"></path> <path class="st14" d="M-264.47,94.02c0,0-1.13-1.88-3.38-2.63c-0.38,1.59-5.07,4.6-8.17,2.53"></path> <path class="st14" d="M-112.3,94.02c0,0-1.13-1.88-3.38-2.63c-0.38,1.59-5.07,4.6-8.17,2.53"></path> <path class="st14" d="M-104.34,94.02c0,0-1.13-1.88-3.38-2.63c-0.38,1.59-5.07,4.6-8.17,2.53"></path> <path class="st14" d="M-96.37,94.02c0,0-1.13-1.88-3.38-2.63c-0.38,1.59-5.07,4.6-8.17,2.53"></path> <path class="st14" d="M-88.41,94.02c0,0-1.13-1.88-3.38-2.63c-0.38,1.59-5.07,4.6-8.17,2.53"></path> <path class="st14" d="M-80.45,94.02c0,0-1.13-1.88-3.38-2.63c-0.38,1.59-5.07,4.6-8.17,2.53"></path> <path class="st14" d="M-72.47,94.02c0,0-1.13-1.88-3.38-2.63c-0.38,1.59-5.07,4.6-8.17,2.53"></path> <path class="st14" d="M-119.86,94.02c0,0-1.13-1.88-3.38-2.63c-0.38,1.59-5.07,4.6-8.17,2.53"></path> <path class="st14" d="M-127.41,94.02c0,0-1.13-1.88-3.38-2.63c-0.38,1.59-5.07,4.6-8.17,2.53"></path> <path class="st14" d="M-134.95,94.02c0,0-1.13-1.88-3.38-2.63c-0.38,1.59-5.07,4.6-8.17,2.53"></path> <path class="st14" d="M-142.51,94.02c0,0-1.13-1.88-3.38-2.63c-0.38,1.59-5.07,4.6-8.17,2.53"></path> <path class="st14" d="M-150.06,94.02c0,0-1.13-1.88-3.38-2.63c-0.38,1.59-5.07,4.6-8.17,2.53"></path> <path class="st14" d="M-157.6,94.02c0,0-1.13-1.88-3.38-2.63c-0.38,1.59-5.07,4.6-8.17,2.53"></path> <path class="st14" d="M-165.15,94.02c0,0-1.13-1.88-3.38-2.63c-0.38,1.59-5.07,4.6-8.17,2.53"></path> <path class="st14" d="M-172.71,94.02c0,0-1.13-1.88-3.38-2.63c-0.38,1.59-5.07,4.6-8.17,2.53"></path> <path class="st14" d="M-180.25,94.02c0,0-1.13-1.88-3.38-2.63c-0.38,1.59-5.07,4.6-8.17,2.53"></path> <g> <rect x="308.83" y="54.99" class="st13" width="6.09" height="34.71"></rect> <rect x="308.83" y="46.83" class="st13" width="6.5" height="6.5"></rect> <polygon class="st15" points="323.88,89.76 318.16,89.76 318.16,55.92 323.88,57.2 "></polygon> <polygon class="st15" points="324.25,55.44 315.33,53.39 315.33,46.89 324.25,49.34 "></polygon> </g> <g> <circle class="st5" cx="351.57" cy="88.01" r="2.71"></circle> <path class="st5" d="M351.57,89.93c-1.06,0-1.92-0.86-1.92-1.92c0-1.06,0.86-1.92,1.92-1.92s1.92,0.86,1.92,1.92 C353.48,89.07,352.62,89.93,351.57,89.93L351.57,89.93z"></path> <path class="st5" d="M351.57,89.5c-0.82,0-1.49-0.67-1.49-1.49c0-0.82,0.66-1.49,1.49-1.49c0.82,0,1.48,0.66,1.48,1.49 C353.05,88.83,352.39,89.5,351.57,89.5L351.57,89.5z"></path> <path class="st4" d="M351.57,89.09c-0.59,0-1.08-0.48-1.08-1.08s0.48-1.08,1.08-1.08c0.59,0,1.08,0.48,1.08,1.08 S352.16,89.09,351.57,89.09L351.57,89.09z"></path> <circle class="st5" cx="376.7" cy="88.01" r="2.71"></circle> <path class="st5" d="M376.7,89.93c-1.06,0-1.92-0.86-1.92-1.92c0-1.06,0.86-1.92,1.92-1.92c1.06,0,1.92,0.86,1.92,1.92 C378.62,89.07,377.76,89.93,376.7,89.93L376.7,89.93z"></path> <path class="st5" d="M376.7,89.5c-0.82,0-1.49-0.67-1.49-1.49c0-0.82,0.66-1.49,1.49-1.49c0.82,0,1.48,0.66,1.48,1.49 C378.19,88.83,377.52,89.5,376.7,89.5L376.7,89.5z"></path> <path class="st4" d="M376.7,89.09c-0.59,0-1.08-0.48-1.08-1.08s0.48-1.08,1.08-1.08c0.59,0,1.08,0.48,1.08,1.08 C377.78,88.6,377.29,89.09,376.7,89.09L376.7,89.09z"></path> <circle class="st5" cx="370.37" cy="88.01" r="2.71"></circle> <path class="st5" d="M370.37,89.93c-1.06,0-1.92-0.86-1.92-1.92c0-1.06,0.86-1.92,1.92-1.92s1.92,0.86,1.92,1.92 C372.29,89.07,371.43,89.93,370.37,89.93L370.37,89.93z"></path> <path class="st4" d="M370.37,89.5c-0.82,0-1.49-0.67-1.49-1.49c0-0.82,0.66-1.49,1.49-1.49c0.82,0,1.49,0.66,1.49,1.49 C371.86,88.83,371.19,89.5,370.37,89.5L370.37,89.5z"></path> <path class="st5" d="M370.37,89.09c-0.59,0-1.08-0.48-1.08-1.08s0.48-1.08,1.08-1.08c0.59,0,1.08,0.48,1.08,1.08 S370.96,89.09,370.37,89.09L370.37,89.09z"></path> <g> <g> <path class="st5" d="M345.7,85.74h-0.75c0.03,0.44,0.07,0.8,0.11,1.09h0.63c0.01,0,0.01,0,0.01,0 c0.3-0.01,0.52-0.25,0.52-0.54C346.24,85.98,346,85.74,345.7,85.74z"></path> </g> </g> <circle class="st5" cx="409.3" cy="88.01" r="2.71"></circle> <path class="st5" d="M409.3,89.93c-1.06,0-1.92-0.86-1.92-1.92c0-1.06,0.86-1.92,1.92-1.92c1.06,0,1.92,0.86,1.92,1.92 C411.21,89.07,410.35,89.93,409.3,89.93L409.3,89.93z"></path> <path class="st5" d="M409.3,89.5c-0.82,0-1.49-0.67-1.49-1.49c0-0.82,0.66-1.49,1.49-1.49c0.82,0,1.49,0.66,1.49,1.49 C410.78,88.83,410.12,89.5,409.3,89.5L409.3,89.5z"></path> <path class="st4" d="M409.3,89.09c-0.59,0-1.08-0.48-1.08-1.08s0.48-1.08,1.08-1.08c0.59,0,1.08,0.48,1.08,1.08 C410.37,88.6,409.89,89.09,409.3,89.09L409.3,89.09z"></path> <circle class="st5" cx="396.63" cy="88.01" r="2.71"></circle> <path class="st5" d="M396.63,89.93c-1.06,0-1.92-0.86-1.92-1.92c0-1.06,0.86-1.92,1.92-1.92s1.92,0.86,1.92,1.92 C398.55,89.07,397.69,89.93,396.63,89.93L396.63,89.93z"></path> <path class="st5" d="M396.63,89.5c-0.82,0-1.49-0.67-1.49-1.49c0-0.82,0.67-1.49,1.49-1.49c0.82,0,1.49,0.66,1.49,1.49 C398.12,88.83,397.45,89.5,396.63,89.5L396.63,89.5z"></path> <path class="st4" d="M396.63,89.09c-0.59,0-1.08-0.48-1.08-1.08s0.48-1.08,1.08-1.08c0.59,0,1.08,0.48,1.08,1.08 S397.22,89.09,396.63,89.09L396.63,89.09z"></path> <circle class="st5" cx="402.96" cy="88.01" r="2.71"></circle> <path class="st5" d="M402.96,89.93c-1.06,0-1.92-0.86-1.92-1.92c0-1.06,0.86-1.92,1.92-1.92s1.92,0.86,1.92,1.92 C404.88,89.07,404.02,89.93,402.96,89.93L402.96,89.93z"></path> <path class="st5" d="M402.96,89.5c-0.82,0-1.49-0.67-1.49-1.49c0-0.82,0.67-1.49,1.49-1.49s1.49,0.66,1.49,1.49 C404.45,88.83,403.78,89.5,402.96,89.5L402.96,89.5z"></path> <path class="st4" d="M402.96,89.09c-0.59,0-1.08-0.48-1.08-1.08s0.48-1.08,1.08-1.08s1.08,0.48,1.08,1.08 C404.04,88.6,403.55,89.09,402.96,89.09L402.96,89.09z"></path> <polygon class="st5" points="366.26,88.01 355.68,88.01 355.68,85.28 367.35,85.28 "></polygon> <g> <polygon class="st5" points="385.48,85.28 385.48,88.01 380.81,88.01 379.73,85.28 "></polygon> </g> <path class="st7" d="M363.13,80.98v-0.22h44.72v0.22v0.54h2.06v-0.54v-11.9h-2.06v0.69h-44.72v-0.69h-2.06v11.9v0.54h2.06 V80.98z"></path> <g> <path class="st5" d="M344.27,83.93c0.13-9.01,5.21-9.07,5.21-9.07h5.14c0.69,0,1.06,0.46,1.06,1.06V88h-0.85 c0-1.8-1.46-3.26-3.27-3.26s-3.27,1.46-3.27,3.26h-3.6C344.3,86.72,344.27,83.93,344.27,83.93z"></path> </g> <g> <path class="st4" d="M349.29,75.97c-2.5,0-3.65,2.89-4.12,5.45l4.82-1.75l0.38-3.71L349.29,75.97L349.29,75.97z"></path> <path class="st4" d="M350.9,75.97l-0.36,3.5c0.63-0.24,1.15-0.81,1.32-1.34l0.68-2.17H350.9z"></path> </g> <path class="st5" d="M355.68,71.11V73c0,0.69-0.55,1.25-1.25,1.25h-5.47C348.28,74.25,355.68,70.42,355.68,71.11z"></path> <rect x="357.71" y="82.4" class="st5" width="57.48" height="1.99"></rect> <rect x="373.24" y="71.9" class="st4" width="0.93" height="6.81"></rect> <rect x="370.29" y="71.9" class="st4" width="0.93" height="6.81"></rect> <rect x="367.36" y="71.9" class="st4" width="0.93" height="6.81"></rect> <rect x="364.42" y="71.9" class="st4" width="0.93" height="6.81"></rect> <rect x="385.52" y="71.9" class="st4" width="0.93" height="6.81"></rect> <rect x="382.58" y="71.9" class="st4" width="0.93" height="6.81"></rect> <rect x="379.65" y="71.9" class="st4" width="0.93" height="6.81"></rect> <rect x="376.71" y="71.9" class="st4" width="0.93" height="6.81"></rect> <rect x="397.81" y="71.9" class="st4" width="0.93" height="6.81"></rect> <rect x="394.88" y="71.9" class="st4" width="0.93" height="6.81"></rect> <rect x="391.94" y="71.9" class="st4" width="0.93" height="6.81"></rect> <rect x="389" y="71.9" class="st4" width="0.93" height="6.81"></rect> <rect x="407.16" y="71.9" class="st4" width="0.93" height="6.81"></rect> <rect x="404.22" y="71.9" class="st4" width="0.93" height="6.81"></rect> <rect x="401.29" y="71.9" class="st4" width="0.93" height="6.81"></rect> </g> <g> <g> <g> <polygon class="st5" points="521.19,70.89 521.19,91.4 545.99,91.4 545.99,80.11 556.24,80.11 556.24,91.4 584.64,91.4 584.64,70.89 "></polygon> </g> <path class="st5" d="M521.52,62.52c0,0.74,0.6,1.34,1.35,1.34h18.18c0.74,0,1.35-0.59,1.35-1.34s-0.6-1.34-1.35-1.34h-0.8 c-1.4-2.78-2.32-7.45-2.32-12.69c0-1.6,0.09-3.15,0.25-4.64h-12.38c0.16,1.49,0.25,3.04,0.25,4.64 c0,5.24-0.92,9.91-2.32,12.69h-0.83C522.12,61.18,521.52,61.78,521.52,62.52z"></path> <path class="st5" d="M542.66,62.87c0,0.55,0.45,0.99,1,0.99h13.4c0.55,0,1-0.44,1-0.99s-0.45-0.99-1-0.99h-0.58 c-1.04-2.05-1.71-5.49-1.71-9.37c0-1.19,0.06-2.31,0.18-3.42h-9.14c0.12,1.11,0.18,2.24,0.18,3.42 c0,3.87-0.68,7.31-1.71,9.37h-0.61C543.1,61.89,542.66,62.32,542.66,62.87z"></path> <polyline class="st7" points="583.86,57.69 583.86,63.71 577.84,63.71 "></polyline> <polyline class="st7" points="576.8,57.69 576.8,63.71 570.77,63.71 "></polyline> <polyline class="st7" points="569.73,57.69 569.73,63.71 563.72,63.71 "></polyline> <rect x="529.33" y="73.87" class="st4" width="5.48" height="2.74"></rect> <rect x="538.19" y="73.87" class="st4" width="5.48" height="2.74"></rect> <rect x="547.04" y="73.87" class="st4" width="5.48" height="2.74"></rect> <rect x="555.91" y="73.87" class="st4" width="5.48" height="2.74"></rect> <rect x="564.77" y="73.87" class="st4" width="5.48" height="2.74"></rect> <rect x="573.62" y="73.87" class="st4" width="5.48" height="2.74"></rect> <path class="st16" d="M541.5,41.36c0,1.4,1.43,2.55,3.2,2.55c0.39,0,0.76-0.06,1.11-0.16c0.34,0.88,1.33,1.51,2.47,1.51 c0.31,0,0.6-0.05,0.87-0.13c0.06,0.56,0.54,1,1.14,1c0.63,0,1.14-0.49,1.14-1.12c0-0.48-0.33-0.9-0.77-1.05 c0.15-0.28,0.23-0.58,0.23-0.9c0-1.22-1.17-2.2-2.6-2.2c-0.15,0-0.3,0.01-0.44,0.03c-0.27-1.19-1.58-2.1-3.16-2.1 C542.95,38.81,541.5,39.95,541.5,41.36z"></path> <path class="st16" d="M519.95,33.36c0,1.91,1.95,3.46,4.34,3.46c0.52,0,1.03-0.08,1.5-0.21c0.46,1.19,1.79,2.05,3.35,2.05 c0.42,0,0.81-0.06,1.18-0.17c0.08,0.76,0.74,1.35,1.54,1.35c0.85,0,1.54-0.67,1.54-1.51c0-0.66-0.44-1.23-1.05-1.42 c0.2-0.38,0.31-0.79,0.31-1.23c0-1.64-1.58-2.98-3.53-2.98c-0.2,0-0.4,0.01-0.58,0.04c-0.37-1.61-2.14-2.84-4.27-2.84 C521.9,29.9,519.95,31.45,519.95,33.36z"></path> <rect x="521.19" y="64.25" class="st7" width="63.45" height="1.84"></rect> <rect x="521.19" y="67.01" class="st7" width="63.45" height="1.02"></rect> <rect x="521.19" y="68.95" class="st7" width="63.45" height="1.02"></rect> </g> <path class="st7" d="M525.74,42.09c0,0.45,0.29,0.8,0.63,0.8h13.83c0.35,0,0.63-0.36,0.63-0.8v-0.01 c0-0.45-0.29-0.8-0.63-0.8h-13.83C526.02,41.28,525.74,41.64,525.74,42.09L525.74,42.09z"></path> <path class="st7" d="M546.12,47.8c0,0.33,0.21,0.59,0.46,0.59h10.2c0.26,0,0.46-0.27,0.46-0.59v-0.01 c0-0.33-0.21-0.59-0.46-0.59h-10.2C546.32,47.21,546.12,47.47,546.12,47.8L546.12,47.8z"></path> </g> <circle class="st11" cx="896.37" cy="91.91" r="3.63"></circle> <g> <g class="st17"> <path class="st18" d="M645.5,64.28v-1.32c0-0.24-0.2-0.44-0.44-0.44s-0.44,0.2-0.44,0.44v1.32c0,0.24,0.2,0.44,0.44,0.44 C645.31,64.73,645.5,64.53,645.5,64.28z"></path> <circle class="st18" cx="645.5" cy="60.74" r="6.8"></circle> <path class="st18" d="M655.21,69.61l-2.27-0.55l-7.42-1.28h-0.92l-7.42,1.28l-2.27,0.55c-1.39,0-2.53,1.23-2.53,2.73 v16.97c0,1.43,1.18,2.61,2.62,2.61c0.67,0,1.29-2.13,1.75-2.54h16.63c0.46,0.42,1.08,2.54,1.75,2.54 c1.44,0,2.62-1.17,2.62-2.61V72.34C657.74,70.84,656.62,69.61,655.21,69.61z M636.75,87.44c0,0.96-0.78,3.6-1.75,3.6 s-1.75-0.78-1.75-1.73V72.34c0-1.01,0.76-1.85,1.66-1.85l1.84-0.55V87.44z M652.2,88.32h-14.64V70.2h14.64V88.32z M656.87,89.31c0,0.96-0.78,1.73-1.75,1.73c-0.97,0-1.75-2.65-1.75-3.6V69.94l1.84,0.55c0.9,0,1.66,0.85,1.66,1.85V89.31z "></path> <polygon class="st18" points="645.73,71.67 645.06,71.67 644.39,71.67 642.99,80.74 645.06,82.85 647.13,80.74 "></polygon> <circle class="st18" cx="644.91" cy="70.42" r="1.25"></circle> <path class="st14" d="M639.56,57.06c0,0,4.52-1.55,6.39,1.46c0.07-1.72-0.29-2.24-0.29-2.24s3.11,0.6,3.28,2.24 c-0.44-2.41-0.44-2.41-0.44-2.41s4.01,1.88,3.8,4.63"></path> </g> <g class="st17"> <path class="st18" d="M671.05,68.23v-1.09c0-0.2-0.16-0.37-0.37-0.37c-0.2,0-0.37,0.16-0.37,0.37v1.09 c0,0.2,0.16,0.37,0.37,0.37C670.87,68.59,671.05,68.43,671.05,68.23z"></path> <circle class="st18" cx="671.05" cy="65.3" r="5.63"></circle> <path class="st18" d="M679.08,72.64l-1.89-0.45l-6.13-1.06h-0.76l-6.13,1.06l-1.89,0.45c-1.16,0-2.1,1.01-2.1,2.26v14.04 c0,1.19,0.98,2.16,2.18,2.16c0.55,0,1.06-1.76,1.44-2.11h13.76c0.39,0.35,0.89,2.11,1.44,2.11c1.2,0,2.18-0.97,2.18-2.16 V74.89C681.18,73.66,680.23,72.64,679.08,72.64z M663.8,87.39c0,0.79-0.65,2.98-1.44,2.98c-0.8,0-1.44-0.64-1.44-1.43 V74.89c0-0.83,0.63-1.53,1.37-1.53l1.52-0.45v14.49C663.82,87.39,663.8,87.39,663.8,87.39z M676.59,88.13h-12.12v-15 h12.12V88.13z M680.45,88.95c0,0.79-0.65,1.43-1.44,1.43c-0.8,0-1.44-2.2-1.44-2.98V72.9l1.52,0.45 c0.74,0,1.37,0.7,1.37,1.53v14.05H680.45z"></path> <polygon class="st18" points="671.22,74.34 670.68,74.34 670.13,74.34 668.97,81.85 670.68,83.6 672.4,81.85 "></polygon> <circle class="st18" cx="670.56" cy="73.31" r="1.03"></circle> <path class="st14" d="M666.11,62.25c0,0,3.74-1.29,5.29,1.22c0.06-1.42-0.24-1.85-0.24-1.85s2.57,0.49,2.72,1.85 c-0.36-2-0.36-2-0.36-2s3.31,1.56,3.15,3.83"></path> </g> <g class="st17"> <path class="st18" d="M621.1,70.65v-0.97c0-0.18-0.15-0.33-0.33-0.33c-0.18,0-0.33,0.15-0.33,0.33v0.97 c0,0.18,0.15,0.33,0.33,0.33S621.1,70.83,621.1,70.65z"></path> <circle class="st18" cx="621.1" cy="68.03" r="5.03"></circle> <path class="st18" d="M628.28,74.6l-1.68-0.41l-5.49-0.95h-0.68l-5.49,0.95l-1.68,0.41c-1.04,0-1.88,0.91-1.88,2.02v12.56 c0,1.07,0.87,1.93,1.94,1.93c0.49,0,0.95-1.57,1.3-1.88h12.3c0.35,0.31,0.8,1.88,1.3,1.88c1.07,0,1.94-0.86,1.94-1.93 V76.61C630.16,75.5,629.31,74.6,628.28,74.6z M614.61,87.79c0,0.7-0.58,2.67-1.3,2.67s-1.3-0.57-1.3-1.29V76.61 c0-0.74,0.56-1.37,1.23-1.37l1.36-0.41L614.61,87.79L614.61,87.79z M626.05,88.44h-10.84V75.03h10.84V88.44z M629.51,89.17c0,0.7-0.58,1.29-1.3,1.29c-0.71,0-1.3-1.96-1.3-2.67V74.83l1.36,0.41c0.66,0,1.23,0.62,1.23,1.37 L629.51,89.17L629.51,89.17z"></path> <polygon class="st18" points="621.26,76.12 620.77,76.12 620.28,76.12 619.24,82.83 620.77,84.4 622.3,82.83 "></polygon> <circle class="st18" cx="620.65" cy="75.2" r="0.92"></circle> <path class="st14" d="M616.68,65.31c0,0,3.34-1.15,4.73,1.09c0.05-1.28-0.22-1.66-0.22-1.66s2.3,0.45,2.43,1.66 c-0.32-1.78-0.32-1.78-0.32-1.78s2.97,1.39,2.81,3.42"></path> </g> </g> <g> <path class="st11" d="M726.32,91.99c-0.13,0.51-0.25,0.51-0.76,0.51h-2.03c-0.51,0-0.63-0.13-0.76-0.51l-4.31-13.68h2.41 l3.55,12.03h0.25l3.55-12.03h2.28L726.32,91.99z"></path> <path class="st11" d="M734.81,79.95h-2.41v-2.28h2.41V79.95z M734.68,92.37h-2.15V81.47h2.15V92.37z"></path> <path class="st11" d="M739.49,87.68c0,2.15,0.13,2.53,0.25,2.79c0.13,0.25,0.25,0.25,0.89,0.25h2.79 c0.51,0,0.63-0.13,0.76-0.25c0.13-0.13,0.13-0.38,0.25-1.39h2.03c0,1.65-0.25,2.28-0.76,2.91 c-0.38,0.38-0.76,0.51-1.77,0.51h-3.55c-1.01,0-1.77-0.13-2.15-0.63c-0.76-0.76-0.89-1.52-0.89-4.81s0.25-4.18,0.89-4.81 c0.51-0.51,1.14-0.63,2.15-0.63h3.04c1.01,0,1.77,0.25,2.15,0.63c0.76,0.76,0.89,1.52,0.89,4.81v0.51 c0,0.13,0,0.25-0.25,0.25L739.49,87.68L739.49,87.68z M739.49,85.91h4.94c0-1.9-0.13-2.28-0.25-2.41 c-0.13-0.13-0.25-0.13-0.89-0.13h-2.53c-0.63,0-0.76,0-1.01,0.25C739.62,83.75,739.49,84.13,739.49,85.91z"></path> <path class="st11" d="M750.38,81.47l1.52,8.61h0.25l1.9-7.98c0.13-0.38,0.25-0.51,0.76-0.51h1.39 c0.51,0,0.63,0.13,0.76,0.51l2.03,7.98h0.25l1.52-8.61h2.03l-2.28,10.39c-0.13,0.51-0.25,0.51-0.76,0.51h-1.52 c-0.51,0-0.63-0.13-0.76-0.51l-1.9-7.85h-0.13l-1.9,7.85c-0.13,0.38-0.25,0.51-0.76,0.51h-1.52 c-0.51,0-0.63-0.13-0.76-0.51l-2.28-10.39C748.23,81.47,750.38,81.47,750.38,81.47z"></path> <path class="st11" d="M771.03,87.68c0,2.15,0.13,2.53,0.25,2.79s0.25,0.25,0.89,0.25h2.79c0.51,0,0.63-0.13,0.76-0.25 c0.13-0.13,0.13-0.38,0.25-1.39h2.03c0,1.65-0.25,2.28-0.76,2.91c-0.38,0.38-0.76,0.51-1.77,0.51h-3.55 c-1.01,0-1.77-0.13-2.15-0.63c-0.76-0.76-0.89-1.52-0.89-4.81s0.25-4.18,0.89-4.81c0.51-0.51,1.14-0.63,2.15-0.63h3.04 c1.01,0,1.77,0.25,2.15,0.63c0.76,0.76,0.89,1.52,0.89,4.81v0.51c0,0.13,0,0.25-0.25,0.25L771.03,87.68L771.03,87.68z M771.03,85.91h4.94c0-1.9-0.13-2.28-0.25-2.41c-0.13-0.13-0.25-0.13-0.89-0.13h-2.53c-0.63,0-0.76,0-1.01,0.25 C771.15,83.75,771.03,84.13,771.03,85.91z"></path> <path class="st11" d="M790.53,91.86c-0.51,0.38-1.01,0.51-2.28,0.51h-3.93c-1.39,0-1.9-0.13-2.28-0.51 c-0.76-0.76-1.27-1.77-1.27-6.59c0-4.81,0.51-5.83,1.27-6.59c0.51-0.38,1.01-0.51,2.28-0.51h3.93 c1.39,0,1.9,0.13,2.28,0.51c0.76,0.76,1.14,1.65,1.14,4.05h-2.28c0-1.77-0.25-2.28-0.51-2.53 c-0.13-0.13-0.38-0.25-1.01-0.25h-3.42c-0.63,0-0.89,0.13-1.01,0.25c-0.25,0.25-0.51,0.89-0.51,4.94 c0,4.05,0.25,4.69,0.51,4.94c0.13,0.13,0.38,0.25,1.01,0.25h3.42c0.63,0,0.89-0.13,1.01-0.25 c0.25-0.25,0.38-0.63,0.51-2.66h2.28C791.67,90.34,791.29,91.1,790.53,91.86z"></path> <path class="st11" d="M794.97,82.11c0.38-0.38,0.89-0.63,1.9-0.63h3.42c1.27,0,1.77,0.25,2.15,0.63 c0.51,0.51,0.63,1.01,0.63,3.04v7.35h-2.28V91.1c-1.27,1.14-1.65,1.39-2.66,1.39h-1.65c-1.01,0-1.52-0.13-2.03-0.51 c-0.38-0.38-0.63-1.01-0.63-2.41c0-1.27,0.25-2.15,0.63-2.53c0.51-0.51,1.01-0.76,3.67-0.76c1.01,0,2.03,0.13,2.66,0.25 v-1.27c0-1.27-0.13-1.65-0.25-1.77c-0.13-0.13-0.38-0.13-1.01-0.13h-2.15c-0.51,0-0.76,0-0.89,0.13 c-0.13,0.13-0.25,0.51-0.25,1.39h-2.03C794.33,83.12,794.59,82.49,794.97,82.11z M800.79,89.96v-2.28h-2.79 c-1.39,0-1.65,0.13-1.77,0.25c-0.25,0.25-0.25,0.51-0.25,1.14c0,0.76,0,1.14,0.25,1.39c0.13,0.13,0.38,0.13,0.89,0.13h1.52 C799.4,90.59,799.78,90.47,800.79,89.96z"></path> <path class="st11" d="M811.43,91.99l-1.27,0.38c-0.25,0.13-0.89,0.13-1.39,0.13c-0.76,0-1.27-0.13-1.65-0.51 c-0.38-0.38-0.51-0.89-0.51-1.65v-6.97h-1.9v-1.9h1.9v-2.66h2.15v2.66h2.66v1.9h-2.66v6.33c0,0.51,0,0.63,0.13,0.76 c0.13,0.13,0.25,0.13,0.76,0.13h1.65v1.39C811.3,91.99,811.43,91.99,811.43,91.99z"></path> <path class="st11" d="M814.47,82.11c0.38-0.38,0.89-0.63,1.9-0.63h3.42c1.27,0,1.77,0.25,2.15,0.63 c0.51,0.51,0.63,1.01,0.63,3.04v7.35h-2.03V91.1c-1.27,1.14-1.65,1.39-2.66,1.39h-1.9c-1.01,0-1.52-0.13-2.03-0.51 c-0.38-0.38-0.63-1.01-0.63-2.41c0-1.27,0.25-2.15,0.63-2.53c0.51-0.51,1.01-0.76,3.67-0.76c1.01,0,2.03,0.13,2.66,0.25 v-1.27c0-1.27-0.13-1.65-0.25-1.77c-0.13-0.13-0.38-0.13-1.01-0.13h-2.15c-0.51,0-0.76,0-0.89,0.13 c-0.13,0.13-0.25,0.51-0.25,1.39h-2.03C813.84,83.12,813.96,82.49,814.47,82.11z M820.3,89.96v-2.28h-2.79 c-1.39,0-1.65,0.13-1.77,0.25c-0.25,0.25-0.25,0.51-0.25,1.14c0,0.76,0,1.14,0.25,1.39c0.13,0.13,0.38,0.13,0.89,0.13h1.52 C818.78,90.59,819.28,90.47,820.3,89.96z"></path> <path class="st11" d="M825.36,92.37V77.8h2.15v14.57H825.36z"></path> <path class="st11" d="M831.19,91.73c-0.76-0.76-0.89-1.52-0.89-4.81s0.25-4.18,0.89-4.81c0.51-0.51,1.14-0.63,2.15-0.63 h3.17c1.01,0,1.77,0.13,2.15,0.63c0.76,0.76,0.89,1.52,0.89,4.81s-0.25,4.18-0.89,4.81c-0.51,0.51-1.14,0.63-2.15,0.63 h-3.17C832.33,92.37,831.7,92.24,831.19,91.73z M832.71,90.34c0.13,0.13,0.25,0.25,0.89,0.25h2.66c0.63,0,0.76,0,0.89-0.25 c0.25-0.25,0.25-0.63,0.25-3.42s-0.13-3.17-0.25-3.42c-0.13-0.13-0.25-0.25-0.89-0.25h-2.53c-0.63,0-0.76,0-0.89,0.25 c-0.25,0.25-0.25,0.63-0.25,3.42S832.58,90.09,832.71,90.34z"></path> <path class="st11" d="M844.87,95.66c-0.89,0-1.39-0.51-1.77-0.76c-0.38-0.38-0.63-1.01-0.63-2.15h2.15 c0,0.51,0.13,0.63,0.25,0.76c0.13,0.13,0.25,0.13,0.89,0.13h2.66c0.63,0,0.76,0,1.01-0.13c0.13-0.13,0.25-0.38,0.25-1.39 v-2.28c-1.39,1.14-1.9,1.27-2.79,1.27h-1.52c-1.14,0-1.77-0.25-2.28-0.63c-0.63-0.63-0.89-1.27-0.89-4.18 s0.25-3.67,0.89-4.18c0.51-0.51,1.01-0.63,2.28-0.63h1.52c0.89,0,1.39,0.25,2.79,1.39V81.6h2.15v10.39 c0,1.9-0.13,2.53-0.63,3.04c-0.38,0.38-0.89,0.63-2.15,0.63H844.87L844.87,95.66z M849.55,88.69v-4.81 c-0.89-0.51-1.52-0.63-2.15-0.63h-1.52c-0.63,0-0.89,0.13-1.14,0.25c-0.25,0.25-0.38,0.63-0.38,2.79s0.13,2.41,0.38,2.79 c0.13,0.13,0.51,0.25,1.14,0.25h1.65C848.16,89.33,848.67,89.2,849.55,88.69z"></path> </g> </g> </g> </g> </g> </g> </g> </g> </g> </svg> 